<svg xmlns="http://www.w3.org/2000/svg" width="716.56" height="1007.503" viewBox="0 0 716.56 1007.503"><g transform="translate(-59.78 -613.437)"><g transform="translate(20.613 -23.159)"><path d="M77.615,7.977C57.775,21.454,55.594,50.971,55.594,50.971c-1.818,54.786,8.088,11.576-35.636,132.54S18.6,350.328,14.467,272.057,70.032,127.63,66.455,69.968s33.559-36.544,35.377-53.907S97.456-5.5,77.615,7.977Z" transform="translate(372.739 1182.726) rotate(172)" fill="#ebd782"/><path d="M30.167,7.172A51.664,51.664,0,0,0,.189,45.829c-2.475,49.26,19.88,77.821,36.686,99.554s36.191,61.347,26.258,106.511S.411,371.038.411,371.038s-3.232,24.687,23.609-14.4,61.064-61.662,58.589-134.818S19.843,114.756,14.974,62.91s45.684-32.858,48.159-48.47S57.176-4.945,30.167,7.172Z" transform="matrix(0.993, 0.122, -0.122, 0.993, 232.462, 899.947)" fill="#fffa84"/><path d="M75.095,0c41.474,0,75.095,10.311,75.095,23.031S116.569,46.062,75.095,46.062,0,35.751,0,23.031,33.621,0,75.095,0Z" transform="translate(285.27 978.821) rotate(-45)" fill="#cbcbcb"/><path d="M37.212,0s11.6,466.287-17.464,466.287S2.285,0,2.285,0Z" transform="translate(347.098 964.847) rotate(-45)" fill="#cbcbcb"/><path d="M100.814,0c10.159,0,17.643,12.577,27.094,15.48,8.363,2.568,18.773-4.735,26.257,0,9.442,5.973,14.71,23.006,21.782,31.945,6.291,7.952,14.738,7.754,18.417,17.645,3.991,10.728,0,22.443,0,34.672,0,11.2,4.344,21.974.863,32.213-4.162,12.241-10.776,16-19.28,25.78-6.634,7.628-31.46,19.076-40.367,24.493-14.94,9.086-15.817,17.256-34.767,17.256A101.284,101.284,0,0,1,89,198.79c-11.182-1.3-22.454,5.649-32.552.694-4.083-2-7.764-14.6-11.678-17.256-6.4-4.339-11.3-18.6-16.674-24.493-10.124-11.113-22.731-10.661-27.028-25.78-2.413-8.489,0-22.738,0-32.213,0-8.65-2.139-26.435,0-34.672,2.461-9.475,9.65-9.233,14.823-17.645,5.422-8.817,20.842-12.45,28.879-19.3C54.6,19.746,57.655,8.8,70.507,4.682A99.558,99.558,0,0,1,100.814,0Z" transform="translate(75.033 794.813) rotate(-45)" fill="#a86d0e"/><path d="M56.119.753c15.436-2.72,5.139,2.477-10.054,6.8-8.124,4.8-17.4,8.983-21.152,11.117C10.58,21.4,18.5,20.5,4.6,61.108,7.928,84.666-3.321,47.046,1,41.386c.649-4.97,1.111-11.3,7.812-20.979C11.876,16.259,22.3,10.162,39.894,7.983A155.273,155.273,0,0,1,56.119.753Z" transform="matrix(-0.469, -0.883, 0.883, -0.469, 161.798, 907.371)" fill="#89590b"/><path d="M22.786,6.876,29.6,80.269l.669,94.039H0L6.338,2.509S9.645-.875,13.757.217,22.786,6.876,22.786,6.876Z" transform="translate(178.121 871.673) rotate(-45)" fill="#cbcbcb"/><path d="M24.482,7.913C33.079,58.7,31.023,178.1,31.023,178.1H.752S-2.237,75.947,3.7,19.893C5.891-.769,22.073-6.322,24.482,7.913Z" transform="translate(259.707 784.731) rotate(-45)" fill="#cbcbcb"/><path d="M27.718,14.639c3.865,56.424,2.553,132.645,2.553,132.645H0L.864,16.3S25.4-19.239,27.718,14.639Z" transform="translate(240.04 847.972) rotate(-45)" fill="#cbcbcb"/><path d="M60.907,1.143c11.488,0,19.5-2.435,30.188-.2,9.458,1.98,28.173,7.336,36.636,10.987,10.677,4.606,16.284,12.3,24.282,19.193,7.114,6.132,17.026,3.96,21.187,11.587,4.513,8.272,20.351,16.433,20.351,25.863,0,8.639,16.073,34.531,12.136,42.426-4.707,9.439-30.035,32.621-39.652,40.161-7.5,5.882-32.642-32.284-42.715-28.107-16.9,7.006-11.723-5.036-33.153-5.036-4.429,0-8.8-.174-13.356-.535-12.646-1-25.394,4.356-36.813.535-4.617-1.545-8.78-11.259-13.206-13.306-7.235-3.346-12.781-14.34-18.857-18.887C-3.515,77.256-1.6,23.025,7.49,17.741,18.6,11.281,27.779,8.778,42.313,5.606,52.97,3.279,48.878,1.143,60.907,1.143Z" transform="matrix(0.326, -0.946, 0.946, 0.326, 75.651, 831.664)" fill="#a00000"/><path d="M11.432.214C17.129,1,25.4,7.5,21.977,13.793,19.626,8.533,18.547,3.4,10.866,3.4-2.875,3.4,9.687,29.028,3.6,18.5S-1.486-1.56,11.432.214Z" transform="matrix(0.839, -0.545, 0.545, 0.839, 179.001, 865.76)" fill="#89590b"/><path d="M18.058.127c7.052.7,9.633,8.2,8.923,15.3C19.345,3.754,20.52,3.666,17.356,2.962.347,2.962,3.622,36.423.82,24.219S2.067-1.452,18.058.127Z" transform="matrix(0.899, -0.438, 0.438, 0.899, 241.029, 838.088)" fill="#89590b"/><path d="M14.494.171c7.052.7,10.224,8.86,8.312,15.185C19.873,9.908,16.956,3.71,13.793,3.007c-17.009,0-6.817,42.166-11.349,23.575S-1.5-1.408,14.494.171Z" transform="matrix(0.899, -0.438, 0.438, 0.899, 263.821, 775.551)" fill="#89590b"/><path d="M35.751.179c13.584,4.185,24.466,10.775,22.772,17.1C40.3,6.887,41.627,3.33,34.078,2.7-6.515,2.7,8.2,38.94,1.517,28.076S10.976-2.057,35.751.179Z" transform="matrix(0.848, 0.53, -0.53, 0.848, 262.352, 728.955)" fill="#89590b"/><path d="M40.787.324c10.745,2.136,5.79,3.562-1.649,2.854C-.866,3.178-.707,41.332.246,24.57S19.5-1.938,40.787.324Z" transform="translate(142.588 709.321) rotate(-4)" fill="#710101"/><path d="M17.838.364c4.7,2.4,2.532,4.005-.721,3.209-17.5,0-17.426,42.9-17.009,24.054S8.53-2.179,17.838.364Z" transform="translate(122.48 803.207) rotate(-103)" fill="#710101"/><path d="M40.448,0C51.1,3.651,46.191,6.089,38.813,4.879-.859,4.879-.7,70.1.244,41.448S18.818,5.209,40.448,0Z" transform="translate(162.094 851.123) rotate(-148)" fill="#710101"/><path d="M57.319,1.252c25.222-4.444-16.59,2.962-31.356,21.99C12.955,40.005,19.7,21,5.8,61.606,9.128,85.164-1.223,70.14.121,56.294c.224-2.331-.26-1.357,2.748-6.773S10.1,36.532,12.156,34.63C15.473,29.8,25.109,15.8,26,14.872a16.411,16.411,0,0,1,3.06-2.626C38.553,4.695,46.554,5.292,57.319,1.252Z" transform="translate(170.885 879.713) rotate(-148)" fill="#710101"/><path d="M15.725.071c6.141.388,8.388,4.568,7.77,8.527-6.649-6.506-5.626-6.555-8.381-6.947C.3,1.651,3.154,20.3.714,13.5S1.8-.809,15.725.071Z" transform="translate(228.735 816.253) rotate(-105)" fill="#89590b"/><path d="M15.93.04c6.221.221,8.5,2.6,7.872,4.857C17.066,1.191,18.1,1.164,15.312.94.306.94,3.2,11.561.724,7.687S1.823-.461,15.93.04Z" transform="translate(244.444 882.242) rotate(-145)" fill="#89590b"/><path d="M2.054,0S7.047,117.243,7.047,223.294c0,124.181,14.387,228.184,15.865,228.049-6.324.218-20.287-103.089-20.287-227.27,0-97.979-4.627-145.963-1.6-212.43C1.108,9.608.969,1.088,1.082.787,1.986.07,2.054,0,2.054,0Z" transform="matrix(0.719, -0.695, 0.695, 0.719, 355.312, 971.701)" fill="#9b9898"/><path d="M3.359.949c.971-8.582,2.283,42.5,2.283,93.684s-.833,71.216-4.161,71.216,0-20.487,0-71.67S2.388,9.532,3.359.949Z" transform="matrix(0.719, -0.695, 0.695, 0.719, 188.236, 878.205)" fill="#9b9898"/><path d="M2.62.79c.971-7,3.015,33.7,3.015,75.45,0,36.785-3.148,57.265-3.148,57.265L0,133.024s1.2-21.071,1.2-57.481C1.2,33.789,1.649,7.792,2.62.79Z" transform="matrix(0.719, -0.695, 0.695, 0.719, 278.431, 803.174)" fill="#9b9898"/><path d="M.979,1.166,1.874,0S4.121,36.4,4.121,59.224c0,34.07-.9,47.254-1.922,47.329a4.7,4.7,0,0,1-1.761.072c-.622-5.861-.4-23.935-.4-47.1C.039,25.453.979,1.166.979,1.166Z" transform="matrix(0.719, -0.695, 0.695, 0.719, 252.895, 861.344)" fill="#9b9898"/><path d="M37.958.333A65.007,65.007,0,0,0,.238,48.974C-2.877,110.956,25.253,146.893,46.4,174.239s45.538,77.192,33.04,134.02S.517,458.175.517,458.175-3.55,489.238,30.223,440.06s76.835-77.588,73.721-169.638S24.968,135.7,18.842,70.466,62.595,16.395,63.481,7.423C60.706,3.37,59.13-1.3,37.958.333Z" transform="matrix(0.993, 0.122, -0.122, 0.993, 265.339, 867.106)" fill="#fff258"/><path d="M83.942,312.93C64.1,299.454,61.921,269.937,61.921,269.937,60.1,215.151,70.009,258.361,26.285,137.4S6.615,19.41,6.488,15.407,22.613-32.512,20.794,48.851,76.359,193.278,72.782,250.94s33.559,36.544,35.377,53.907S103.783,326.407,83.942,312.93Z" transform="translate(271.536 1254.797) rotate(-158)" fill="#fffa84"/><path d="M3.844,0S14.482,21.512,19.4,35.134c5.424,14.342,8.436,32,5.156,54.993S7.071,137.456,3.842,150.789A44.725,44.725,0,0,1,0,159.547s6.639-4.865,11.638-16.089c8.864-19.9,15.593-29.466,19.348-68.641C30.169,37.571,3.844,0,3.844,0Z" transform="matrix(0.993, 0.122, -0.122, 0.993, 251.189, 1055.744)" fill="#e8e481"/><path d="M83.942,7.977C64.1,21.454,61.921,50.971,61.921,50.971c-1.818,54.786,8.088,11.576-35.636,132.54S6.615,301.5,6.488,305.5s16.124,47.919,14.306-33.444S76.359,127.63,72.782,69.968s33.559-36.544,35.377-53.907S103.783-5.5,83.942,7.977Z" transform="translate(193.772 922.952) rotate(-8)" fill="#fff258"/><path d="M0,0S2.907,10.393,4.726,15.817C6.732,21.527,6.949,28.9,5.736,38.06S4.487,55.1,1.728,61.411s-.395,5,2.884-2.919,1.81-12.431,3.2-28.029C7.508,15.633,0,0,0,0Z" transform="translate(291.967 1192.013) rotate(30)" fill="#e8e481"/></g><path d="M62.18,40.28a18.866,18.866,0,0,1-1.2,6.6,19.793,19.793,0,0,1-3.32,5.8,16.706,16.706,0,0,1-5.04,4.12,13.45,13.45,0,0,1-6.44,1.56,10.948,10.948,0,0,1-8.04-2.96,10.729,10.729,0,0,1-3-8,18.11,18.11,0,0,1,1.76-7.76,27.492,27.492,0,0,1,4.8-7.04,38.351,38.351,0,0,1,7.12-5.96,52.176,52.176,0,0,1,8.72-4.6,53.814,53.814,0,0,1,9.64-2.96,48.048,48.048,0,0,1,9.8-1.04,46.544,46.544,0,0,1,7.08.56,20.463,20.463,0,0,1,6.28,1.92q.8-.32,1.84-.72t2.2-.76q1.16-.36,2.28-.64a13.116,13.116,0,0,1,2.08-.36l.08.48a16.222,16.222,0,0,0-3.8.96,27.977,27.977,0,0,0-3.48,1.6q6.08,3.44,6.08,9.92a14.9,14.9,0,0,1-1.64,7.24,14.151,14.151,0,0,1-4.32,4.88,17.963,17.963,0,0,1-6.12,2.72,29.57,29.57,0,0,1-7.04.84v.16a8.477,8.477,0,0,1,3.72,2.76,7.412,7.412,0,0,1,1.24,4.44,15.678,15.678,0,0,1-.76,4.32q-.76,2.56-1.72,5.28-.96,2.64-1.76,5.08a13.531,13.531,0,0,0-.8,4.04q0,2.56,2.32,2.56a12.415,12.415,0,0,0,5.56-1.64,28.946,28.946,0,0,0,6.68-5.08,79.282,79.282,0,0,0,11.6-14.64l.72.32q-1.84,2.88-4.36,6.44a60.118,60.118,0,0,1-6.12,7.24q-7.92,8.32-14.64,8.32a6.743,6.743,0,0,1-4.44-1.36,5,5,0,0,1-1.64-4.08,12.57,12.57,0,0,1,.92-4.24q.92-2.48,2.04-5.12t2-5.28a14.952,14.952,0,0,0,.88-4.64q0-3.04-1.64-4a12.069,12.069,0,0,0-4.28-1.36l.32-.8q.88.16,1.68.24t1.68.08a15.181,15.181,0,0,0,6.4-1.32,14.781,14.781,0,0,0,4.92-3.6,16.38,16.38,0,0,0,3.16-5.32A18.6,18.6,0,0,0,93.3,29a9.963,9.963,0,0,0-.76-3.84,6.831,6.831,0,0,0-2.28-2.96,27.589,27.589,0,0,0-7.8,7.32q-3.72,4.92-7.44,10.96t-7.6,12.36a102.172,102.172,0,0,1-8.2,11.56,44.349,44.349,0,0,1-9.2,8.56,18.53,18.53,0,0,1-10.64,3.32,11.512,11.512,0,0,1-2.64-.32,7.965,7.965,0,0,1-2.44-1,5.96,5.96,0,0,1-1.8-1.76,4.436,4.436,0,0,1-.72-2.52,3.137,3.137,0,0,1,.88-2.32,3.243,3.243,0,0,1,2.4-.88,2.36,2.36,0,0,1,1.8.72,2.468,2.468,0,0,1,.68,1.76,3.377,3.377,0,0,1-.56,1.84,1.7,1.7,0,0,1-1.68.8,3.173,3.173,0,0,0,1.68,1.88,6.388,6.388,0,0,0,3.28.84,11.554,11.554,0,0,0,7.8-3.24,47.254,47.254,0,0,0,7.2-8.36q3.56-5.12,7.12-11.36t7.6-12.24A90.311,90.311,0,0,1,78.7,29.08a34.394,34.394,0,0,1,10.36-7.76,18.765,18.765,0,0,0-5.92-1.84,44.178,44.178,0,0,0-6.4-.48,43.46,43.46,0,0,0-8.44.88,50.916,50.916,0,0,0-8.72,2.56,48.349,48.349,0,0,0-8.2,4.16,33.551,33.551,0,0,0-6.88,5.72,27.119,27.119,0,0,0-4.72,7.12,20.189,20.189,0,0,0-1.76,8.44,10.45,10.45,0,0,0,2.16,6.96,7.518,7.518,0,0,0,6.08,2.56,12.135,12.135,0,0,0,6.2-1.6,16.519,16.519,0,0,0,4.72-4.08,18.48,18.48,0,0,0,3-5.52,18.236,18.236,0,0,0,1.04-5.92Zm57.04,9.76a2.19,2.19,0,0,0-.6-1.68,2.087,2.087,0,0,0-1.48-.56,6.634,6.634,0,0,0-3.64,1.32,25.11,25.11,0,0,0-3.88,3.28,32.689,32.689,0,0,0-3.48,4.2,26.12,26.12,0,0,0-2.36,4,30.508,30.508,0,0,0,4.4-1.24,32.135,32.135,0,0,0,5.08-2.28,18.247,18.247,0,0,0,4.2-3.16A5.481,5.481,0,0,0,119.22,50.04Zm12.96,4.24a52.27,52.27,0,0,1-3,4.4,50.352,50.352,0,0,1-4.08,4.76A66.538,66.538,0,0,1,120.22,68a44.063,44.063,0,0,1-5.4,3.92,29.509,29.509,0,0,1-5.64,2.72,16.68,16.68,0,0,1-5.56,1,7.327,7.327,0,0,1-5.2-1.72A6.406,6.406,0,0,1,96.58,69a15.469,15.469,0,0,1,2.12-7.4,31.391,31.391,0,0,1,5.4-7.16A31.982,31.982,0,0,1,111.3,49a15.6,15.6,0,0,1,7.52-2.16,5.1,5.1,0,0,1,3.12.84,2.862,2.862,0,0,1,1.12,2.44,5.031,5.031,0,0,1-2.08,3.72,23.847,23.847,0,0,1-5.08,3.28,52.353,52.353,0,0,1-6.44,2.64,55.259,55.259,0,0,1-6.08,1.72,16.9,16.9,0,0,0-1.44,3.6,14.776,14.776,0,0,0-.56,4,8.824,8.824,0,0,0,.2,1.88,5.779,5.779,0,0,0,.64,1.68,3.559,3.559,0,0,0,1.2,1.24,3.455,3.455,0,0,0,1.88.48,14.685,14.685,0,0,0,6.2-1.72,40.261,40.261,0,0,0,7.24-4.6,57.709,57.709,0,0,0,7.04-6.56,50.055,50.055,0,0,0,5.76-7.6Zm20.64-6.8h5.2q-2.96,4.16-5.68,8.08T147.5,62.8q-2.12,3.32-3.4,5.84a9.609,9.609,0,0,0-1.28,3.96q0,2.08,2.16,2.08a8.678,8.678,0,0,0,4.28-1.64,37.582,37.582,0,0,0,5.64-4.52,78.366,78.366,0,0,0,6.24-6.72,95.342,95.342,0,0,0,6.08-8.16l.48.16q-2.16,3.28-5.08,7.08a79.4,79.4,0,0,1-6.12,7.08,43.3,43.3,0,0,1-6.4,5.48,10.754,10.754,0,0,1-6,2.2,4.445,4.445,0,0,1-3.4-1.16,3.912,3.912,0,0,1-1.08-2.76,6.914,6.914,0,0,1,.36-2.2q.36-1.08.76-2.2l-.16-.08q-1.04,1.12-2.6,2.6a30.841,30.841,0,0,1-3.36,2.76,22.827,22.827,0,0,1-3.72,2.16,8.827,8.827,0,0,1-3.68.88q-2.96,0-4.16-1.84a7.447,7.447,0,0,1-1.2-4.16,15.789,15.789,0,0,1,2.08-7.24,35.079,35.079,0,0,1,5.28-7.44,32.989,32.989,0,0,1,6.96-5.8,13.658,13.658,0,0,1,7.12-2.32,8.122,8.122,0,0,1,2.8.44,5.716,5.716,0,0,1,2,1.2,5.547,5.547,0,0,1,1.24,1.72,10.4,10.4,0,0,1,.68,2h.16Zm-26.16,22.4a4.615,4.615,0,0,0,.76,2.84,2.511,2.511,0,0,0,2.12,1,6.943,6.943,0,0,0,3.2-1,23.511,23.511,0,0,0,3.84-2.68,38.489,38.489,0,0,0,3.96-3.88,32.76,32.76,0,0,0,3.48-4.68,29.4,29.4,0,0,0,2.48-5.04,13.9,13.9,0,0,0,.96-4.88,3.445,3.445,0,0,0-3.6-3.76,9.623,9.623,0,0,0-5.36,2.08,28.2,28.2,0,0,0-5.6,5.32,33.23,33.23,0,0,0-4.44,7.16A18.007,18.007,0,0,0,126.66,69.88Zm84.88-50.24q-3.12,4.96-6.8,10.48t-7.36,10.96q-3.68,5.44-7.08,10.52t-6.04,9.32q-2.64,4.24-4.2,7.32a11.732,11.732,0,0,0-1.56,4.52,2.1,2.1,0,0,0,.44,1.4,1.632,1.632,0,0,0,1.32.52,8.881,8.881,0,0,0,4.56-1.6,40.841,40.841,0,0,0,6.16-5.04,72.081,72.081,0,0,0,6.08-6.76,68,68,0,0,0,5.12-7.32l.64.32q-.72,1.28-1.88,3t-2.56,3.56q-1.4,1.84-3,3.72t-3.28,3.56a41.634,41.634,0,0,1-6.32,5.4,10.465,10.465,0,0,1-5.76,2.12,5.67,5.67,0,0,1-3.8-1.08,3.5,3.5,0,0,1-1.24-2.76,7.217,7.217,0,0,1,.64-2.96,28.568,28.568,0,0,1,1.28-2.56l-.16-.08q-1.28,1.44-2.84,3.08a36.314,36.314,0,0,1-3.32,3.08,17.831,17.831,0,0,1-3.72,2.36,9.408,9.408,0,0,1-4.04.92,5.621,5.621,0,0,1-4.44-1.76,6.066,6.066,0,0,1-1.56-4.16,14.889,14.889,0,0,1,2.32-7.36,35.489,35.489,0,0,1,5.8-7.44,37.136,37.136,0,0,1,7.48-5.76,15,15,0,0,1,7.44-2.32,5.236,5.236,0,0,1,5.52,5.68h.24l20.64-32.88ZM183.14,52.6a8.21,8.21,0,0,0-.64-3.36q-.64-1.44-2.96-1.44a7.314,7.314,0,0,0-3.56,1.12,22.131,22.131,0,0,0-3.96,2.96,37.1,37.1,0,0,0-3.88,4.2,41.849,41.849,0,0,0-3.32,4.8,31.121,31.121,0,0,0-2.32,4.76,11.9,11.9,0,0,0-.88,4.16,5.577,5.577,0,0,0,.64,2.8,2.44,2.44,0,0,0,2.32,1.12,6.7,6.7,0,0,0,3.32-1.12,28.2,28.2,0,0,0,3.96-2.92,39.788,39.788,0,0,0,4.08-4.12,54.584,54.584,0,0,0,3.6-4.64,29.552,29.552,0,0,0,2.6-4.52A9.477,9.477,0,0,0,183.14,52.6Zm28.32-5.12q-2.88,4.16-5.76,8t-5.16,7.04q-2.28,3.2-3.72,5.64a8.421,8.421,0,0,0-1.44,3.88,2.016,2.016,0,0,0,2.24,2.32,9.671,9.671,0,0,0,5.4-2.24,45.8,45.8,0,0,0,6.52-5.96,99.128,99.128,0,0,0,7-8.56q3.56-4.84,6.84-10.12h4.96q-4.72,6.48-8.8,13.32t-8.56,13.56a33.356,33.356,0,0,0,14.52-6.68,56.328,56.328,0,0,0,12.28-13.24l.56.24A53.143,53.143,0,0,1,225.26,68.8a34.513,34.513,0,0,1-14.84,6.52q-3.12,4.24-6.36,8.6a52.765,52.765,0,0,1-7.12,7.84,35.451,35.451,0,0,1-8.52,5.68,24.167,24.167,0,0,1-10.48,2.2,17.976,17.976,0,0,1-5-.68,14.271,14.271,0,0,1-4.12-1.88,9.584,9.584,0,0,1-2.8-2.88,6.72,6.72,0,0,1-1.04-3.6q0-4.16,2.76-6.08a11.4,11.4,0,0,1,6.68-1.92v.24a6.66,6.66,0,0,0-4.24,2.6,8.43,8.43,0,0,0-1.36,4.92,7.691,7.691,0,0,0,.8,3.56,8.008,8.008,0,0,0,2.08,2.6,9.406,9.406,0,0,0,2.92,1.6,10.449,10.449,0,0,0,3.4.56,16.091,16.091,0,0,0,7.28-1.76,31.187,31.187,0,0,0,6.76-4.64,55.774,55.774,0,0,0,6.2-6.52q2.96-3.64,5.6-7.52t4.92-7.6q2.28-3.72,4.2-6.68l-.16-.16q-1.28,1.52-3.12,3.56a39.9,39.9,0,0,1-4.04,3.88,25.538,25.538,0,0,1-4.68,3.12,11.033,11.033,0,0,1-5.12,1.28,5.323,5.323,0,0,1-3.68-1.04,3.636,3.636,0,0,1-1.12-2.8,8.062,8.062,0,0,1,.84-3.4,34.822,34.822,0,0,1,2.68-4.52q1.84-2.72,4.68-6.64t6.84-9.76ZM222.9,84.44a20.017,20.017,0,0,0,3.8-1.08,16.494,16.494,0,0,0,3.64-1.96,11.325,11.325,0,0,0,2.8-2.84,7.494,7.494,0,0,0,1.28-3.72,1.928,1.928,0,0,1-.96.16,3.156,3.156,0,0,1-1.8-.64,2.267,2.267,0,0,1-.92-2,3.364,3.364,0,0,1,.84-2.36,2.935,2.935,0,0,1,2.28-.92,2.643,2.643,0,0,1,2.32,1.16,4.349,4.349,0,0,1,.8,2.52,8.6,8.6,0,0,1-1.24,4.48,13.367,13.367,0,0,1-3.28,3.68,19.231,19.231,0,0,1-4.56,2.64,19.7,19.7,0,0,1-5,1.36Zm45.12-30a3.974,3.974,0,0,1,2.76.84,2.839,2.839,0,0,1,.92,2.2,3.028,3.028,0,0,1-.72,2.04,2.4,2.4,0,0,1-1.92.84,2.611,2.611,0,0,1-.92-.2,1.457,1.457,0,0,1-.76-.6,4.79,4.79,0,0,0-1.16,2.32,14.26,14.26,0,0,0-.28,2.88,8.55,8.55,0,0,0,1,4,10.1,10.1,0,0,0,2.88,3.36,15.349,15.349,0,0,0,4.52,2.32,18.384,18.384,0,0,0,5.84.88,16.344,16.344,0,0,0,9.2-2.48,19.525,19.525,0,0,0,6.08-6.36,28.635,28.635,0,0,0,3.36-8.6,46.284,46.284,0,0,0,1.12-9.12,59.7,59.7,0,0,1,1.4-12.8,32.189,32.189,0,0,1,3.76-9.64,17.807,17.807,0,0,1,6.08-6.12,16.068,16.068,0,0,1,8.36-2.16,10.937,10.937,0,0,1,6.88,2.04,6.412,6.412,0,0,1,2.64,5.32,4.4,4.4,0,0,1-1.8,3.84,7.192,7.192,0,0,1-4.28,1.28,12.2,12.2,0,0,0,1.32-2.64,9.961,9.961,0,0,0,.44-3.2,5.254,5.254,0,0,0-1.68-4.28,6.049,6.049,0,0,0-4-1.4,10.678,10.678,0,0,0-5.32,1.24,11.3,11.3,0,0,0-3.72,3.4,18.448,18.448,0,0,0-2.44,5.04,45.653,45.653,0,0,0-1.48,6.12q-.56,3.24-.84,6.68t-.52,6.8a41.31,41.31,0,0,1-2.92,13.64,25.491,25.491,0,0,1-5.8,8.6A19.426,19.426,0,0,1,288.34,75a30.009,30.009,0,0,1-8.72,1.28,18.156,18.156,0,0,1-6.6-1.16,15.625,15.625,0,0,1-5.16-3.2,13.886,13.886,0,0,1-3.32-4.84,15.942,15.942,0,0,1-1.16-6.16,7.937,7.937,0,0,1,1.28-4.64A3.92,3.92,0,0,1,268.02,54.44Zm65.92-4.4a2.19,2.19,0,0,0-.6-1.68,2.087,2.087,0,0,0-1.48-.56,6.634,6.634,0,0,0-3.64,1.32,25.11,25.11,0,0,0-3.88,3.28,32.689,32.689,0,0,0-3.48,4.2,26.119,26.119,0,0,0-2.36,4,30.507,30.507,0,0,0,4.4-1.24,32.136,32.136,0,0,0,5.08-2.28,18.246,18.246,0,0,0,4.2-3.16A5.481,5.481,0,0,0,333.94,50.04Zm12.96,4.24a52.263,52.263,0,0,1-3,4.4,50.35,50.35,0,0,1-4.08,4.76A66.535,66.535,0,0,1,334.94,68a44.064,44.064,0,0,1-5.4,3.92,29.509,29.509,0,0,1-5.64,2.72,16.68,16.68,0,0,1-5.56,1,7.326,7.326,0,0,1-5.2-1.72A6.406,6.406,0,0,1,311.3,69a15.469,15.469,0,0,1,2.12-7.4,31.391,31.391,0,0,1,5.4-7.16,31.982,31.982,0,0,1,7.2-5.44,15.6,15.6,0,0,1,7.52-2.16,5.1,5.1,0,0,1,3.12.84,2.862,2.862,0,0,1,1.12,2.44,5.031,5.031,0,0,1-2.08,3.72,23.848,23.848,0,0,1-5.08,3.28,52.353,52.353,0,0,1-6.44,2.64,55.261,55.261,0,0,1-6.08,1.72,16.9,16.9,0,0,0-1.44,3.6,14.776,14.776,0,0,0-.56,4,8.824,8.824,0,0,0,.2,1.88,5.779,5.779,0,0,0,.64,1.68,3.559,3.559,0,0,0,1.2,1.24,3.455,3.455,0,0,0,1.88.48,14.685,14.685,0,0,0,6.2-1.72,40.262,40.262,0,0,0,7.24-4.6,57.708,57.708,0,0,0,7.04-6.56,50.057,50.057,0,0,0,5.76-7.6ZM360.26,38.2l-6.32,9.28H364.5l-.48.96H353.3q-3.2,5.2-5.72,9T343.34,64a46.207,46.207,0,0,0-2.6,4.64,8.016,8.016,0,0,0-.88,3.32,2.239,2.239,0,0,0,1.04,2.12,4.716,4.716,0,0,0,2.4.6,12.156,12.156,0,0,0,6.36-2.2,47.435,47.435,0,0,0,6.92-5.4,87.923,87.923,0,0,0,6.56-6.8q3.12-3.6,5.28-6.48l.48.32q-2.72,3.44-5.96,7.24a79.26,79.26,0,0,1-6.68,6.96,42.617,42.617,0,0,1-6.92,5.24,12.94,12.94,0,0,1-6.6,2.08,6.42,6.42,0,0,1-4.28-1.52,5.248,5.248,0,0,1-1.8-4.24,10.073,10.073,0,0,1,1.04-4.12,40.869,40.869,0,0,1,2.72-4.92q1.68-2.64,3.8-5.76t4.36-6.64h-4.32l.48-.96h4.48l6.24-9.28Zm22.24,0-6.32,9.28h10.56l-.48.96H375.54q-3.2,5.2-5.72,9T365.58,64a46.207,46.207,0,0,0-2.6,4.64,8.016,8.016,0,0,0-.88,3.32,2.239,2.239,0,0,0,1.04,2.12,4.716,4.716,0,0,0,2.4.6,12.156,12.156,0,0,0,6.36-2.2,47.435,47.435,0,0,0,6.92-5.4,87.923,87.923,0,0,0,6.56-6.8q3.12-3.6,5.28-6.48l.48.32q-2.72,3.44-5.96,7.24a79.26,79.26,0,0,1-6.68,6.96,42.617,42.617,0,0,1-6.92,5.24,12.94,12.94,0,0,1-6.6,2.08,6.42,6.42,0,0,1-4.28-1.52,5.248,5.248,0,0,1-1.8-4.24,10.073,10.073,0,0,1,1.04-4.12,40.869,40.869,0,0,1,2.72-4.92q1.68-2.64,3.8-5.76t4.36-6.64H366.5l.48-.96h4.48l6.24-9.28Zm17.12,9.28q-4.4,6.32-7.44,10.64t-4.92,7.2a49.565,49.565,0,0,0-2.72,4.56,6.532,6.532,0,0,0-.84,2.72q0,2.08,1.68,2.08a8,8,0,0,0,3.72-1.16,31.774,31.774,0,0,0,4.44-3,54.339,54.339,0,0,0,4.64-4.16q2.32-2.32,4.36-4.6t3.6-4.4a29.755,29.755,0,0,0,2.28-3.48l.64.4q-.96,1.6-2.6,3.84t-3.72,4.6q-2.08,2.36-4.4,4.68a47.952,47.952,0,0,1-4.72,4.16,28.18,28.18,0,0,1-4.68,2.96,9.622,9.622,0,0,1-4.2,1.12,4.01,4.01,0,0,1-3.2-1.2,3.943,3.943,0,0,1-1.04-2.64,9.51,9.51,0,0,1,.76-3.56,31.985,31.985,0,0,1,2.44-4.6q1.68-2.72,4.36-6.6t6.44-9.56Zm4.64-14.88a2.423,2.423,0,0,1,1.84.76,2.814,2.814,0,0,1,0,3.76,2.607,2.607,0,0,1-3.68,0,2.815,2.815,0,0,1,0-3.76A2.423,2.423,0,0,1,404.26,32.6Zm-8,51.84a20.017,20.017,0,0,0,3.8-1.08,16.494,16.494,0,0,0,3.64-1.96,11.325,11.325,0,0,0,2.8-2.84,7.493,7.493,0,0,0,1.28-3.72,1.928,1.928,0,0,1-.96.16,3.156,3.156,0,0,1-1.8-.64,2.267,2.267,0,0,1-.92-2,3.364,3.364,0,0,1,.84-2.36,2.935,2.935,0,0,1,2.28-.92,2.643,2.643,0,0,1,2.32,1.16,4.349,4.349,0,0,1,.8,2.52,8.6,8.6,0,0,1-1.24,4.48,13.366,13.366,0,0,1-3.28,3.68,19.232,19.232,0,0,1-4.56,2.64,19.7,19.7,0,0,1-5,1.36Zm45.12-30a3.974,3.974,0,0,1,2.76.84,2.839,2.839,0,0,1,.92,2.2,3.028,3.028,0,0,1-.72,2.04,2.4,2.4,0,0,1-1.92.84,2.611,2.611,0,0,1-.92-.2,1.457,1.457,0,0,1-.76-.6,4.79,4.79,0,0,0-1.16,2.32,14.26,14.26,0,0,0-.28,2.88,8.55,8.55,0,0,0,1,4,10.1,10.1,0,0,0,2.88,3.36,15.349,15.349,0,0,0,4.52,2.32,18.384,18.384,0,0,0,5.84.88,16.344,16.344,0,0,0,9.2-2.48,19.525,19.525,0,0,0,6.08-6.36,28.635,28.635,0,0,0,3.36-8.6,46.284,46.284,0,0,0,1.12-9.12,59.7,59.7,0,0,1,1.4-12.8,32.189,32.189,0,0,1,3.76-9.64,17.807,17.807,0,0,1,6.08-6.12,16.068,16.068,0,0,1,8.36-2.16,10.937,10.937,0,0,1,6.88,2.04,6.412,6.412,0,0,1,2.64,5.32,4.4,4.4,0,0,1-1.8,3.84,7.192,7.192,0,0,1-4.28,1.28,12.2,12.2,0,0,0,1.32-2.64,9.961,9.961,0,0,0,.44-3.2,5.254,5.254,0,0,0-1.68-4.28,6.049,6.049,0,0,0-4-1.4,10.678,10.678,0,0,0-5.32,1.24,11.3,11.3,0,0,0-3.72,3.4,18.448,18.448,0,0,0-2.44,5.04,45.653,45.653,0,0,0-1.48,6.12q-.56,3.24-.84,6.68t-.52,6.8a41.31,41.31,0,0,1-2.92,13.64,25.491,25.491,0,0,1-5.8,8.6A19.426,19.426,0,0,1,461.7,75a30.009,30.009,0,0,1-8.72,1.28,18.156,18.156,0,0,1-6.6-1.16,15.625,15.625,0,0,1-5.16-3.2,13.886,13.886,0,0,1-3.32-4.84,15.942,15.942,0,0,1-1.16-6.16,7.937,7.937,0,0,1,1.28-4.64A3.92,3.92,0,0,1,441.38,54.44Zm70.56-22.48q-4.24,6.48-8.8,12.72t-8.72,12.8l.16.16q1.2-1.6,2.8-3.48a35.733,35.733,0,0,1,3.44-3.52,18.275,18.275,0,0,1,4-2.72,9.74,9.74,0,0,1,4.4-1.08,6.853,6.853,0,0,1,4.32,1.36q1.76,1.36,1.76,4.72a13.8,13.8,0,0,1-.56,3.96,17.21,17.21,0,0,1-1.48,3.52,20.376,20.376,0,0,1-2.08,3.04q-1.16,1.4-2.36,2.6l.16.16a29.834,29.834,0,0,0,10.44-3.92,37.8,37.8,0,0,0,9.32-8.64l.64.32a46.088,46.088,0,0,1-6.72,6.88,30,30,0,0,1-5.76,3.72,22.918,22.918,0,0,1-4.88,1.72q-2.24.48-4.24.96-1.36,1.04-3.08,2.48t-3.64,2.76a24.654,24.654,0,0,1-4,2.24,10.387,10.387,0,0,1-4.24.92,4.482,4.482,0,0,1-2.2-.6,2.07,2.07,0,0,1-1.08-1.96,3.3,3.3,0,0,1,1.64-2.8,13.855,13.855,0,0,1,4-1.8,35.711,35.711,0,0,1,4.92-1.04q2.56-.36,4.32-.52A23.78,23.78,0,0,0,506.54,64a31.575,31.575,0,0,0,1.96-3.64,26.022,26.022,0,0,0,1.44-3.96,14.407,14.407,0,0,0,.56-3.8q0-2.8-.8-3.64a2.558,2.558,0,0,0-1.92-.84,7.2,7.2,0,0,0-3.88,1.32,24.488,24.488,0,0,0-4.12,3.44,56.761,56.761,0,0,0-4.12,4.72q-2.04,2.6-3.8,5.16t-3.2,4.76q-1.44,2.2-2.4,3.48-.72,1.04-2.08,3.04t-3.04,4.56q-1.68,2.56-3.56,5.52t-3.72,5.96q-1.84,3-3.52,5.8t-2.96,5.04h-4.96q10.8-17.36,22.04-34.44t22.2-34.52Zm-18,42.72a5.74,5.74,0,0,0,2.68-.8,19.319,19.319,0,0,0,2.88-1.92,30.553,30.553,0,0,0,2.52-2.24q1.12-1.12,1.6-1.68l-.16-.16q-1.36.24-3.4.52a35.171,35.171,0,0,0-3.92.76,11,11,0,0,0-3.2,1.32,2.584,2.584,0,0,0-1.32,2.28,1.615,1.615,0,0,0,.72,1.44A2.822,2.822,0,0,0,493.94,74.68Zm55.84-27.2h5.2q-2.96,4.16-5.68,8.08t-4.84,7.24q-2.12,3.32-3.4,5.84a9.609,9.609,0,0,0-1.28,3.96q0,2.08,2.16,2.08a8.678,8.678,0,0,0,4.28-1.64,37.583,37.583,0,0,0,5.64-4.52,78.356,78.356,0,0,0,6.24-6.72,95.333,95.333,0,0,0,6.08-8.16l.48.16q-2.16,3.28-5.08,7.08a79.4,79.4,0,0,1-6.12,7.08,43.3,43.3,0,0,1-6.4,5.48,10.754,10.754,0,0,1-6,2.2,4.445,4.445,0,0,1-3.4-1.16,3.912,3.912,0,0,1-1.08-2.76,6.914,6.914,0,0,1,.36-2.2q.36-1.08.76-2.2l-.16-.08q-1.04,1.12-2.6,2.6a30.838,30.838,0,0,1-3.36,2.76,22.826,22.826,0,0,1-3.72,2.16,8.827,8.827,0,0,1-3.68.88q-2.96,0-4.16-1.84a7.448,7.448,0,0,1-1.2-4.16,15.789,15.789,0,0,1,2.08-7.24,35.078,35.078,0,0,1,5.28-7.44,32.99,32.99,0,0,1,6.96-5.8,13.658,13.658,0,0,1,7.12-2.32,8.122,8.122,0,0,1,2.8.44,5.716,5.716,0,0,1,2,1.2,5.547,5.547,0,0,1,1.24,1.72,10.4,10.4,0,0,1,.68,2h.16Zm-26.16,22.4a4.615,4.615,0,0,0,.76,2.84,2.511,2.511,0,0,0,2.12,1,6.943,6.943,0,0,0,3.2-1,23.512,23.512,0,0,0,3.84-2.68,38.484,38.484,0,0,0,3.96-3.88,32.755,32.755,0,0,0,3.48-4.68,29.394,29.394,0,0,0,2.48-5.04,13.9,13.9,0,0,0,.96-4.88,3.445,3.445,0,0,0-3.6-3.76,9.623,9.623,0,0,0-5.36,2.08,28.2,28.2,0,0,0-5.6,5.32,33.233,33.233,0,0,0-4.44,7.16A18.007,18.007,0,0,0,523.62,69.88Zm67.44-22.4q-4.8,6.48-9.08,13.2t-8.84,13.36a32.324,32.324,0,0,0,7.88-2.88,42.2,42.2,0,0,0,7.32-4.8,51.4,51.4,0,0,0,6.36-6.16,44.519,44.519,0,0,0,4.92-6.8l.32.48a45.452,45.452,0,0,1-7.72,10,49.3,49.3,0,0,1-8.12,6.4,37.054,37.054,0,0,1-7.04,3.48A24.826,24.826,0,0,1,572.58,75a9.009,9.009,0,0,0-1.6,2.08q-1.2,1.84-3.2,4.48a72.493,72.493,0,0,1-4.76,5.6,42.891,42.891,0,0,1-6.24,5.48,35.2,35.2,0,0,1-7.72,4.2,24.532,24.532,0,0,1-9.12,1.68,21.4,21.4,0,0,1-5.36-.64,13.931,13.931,0,0,1-4.28-1.84,8.99,8.99,0,0,1-2.8-2.88,7.21,7.21,0,0,1-1-3.76,7.443,7.443,0,0,1,2.48-5.72,9.209,9.209,0,0,1,8.64-1.96v.64h-.64a5.5,5.5,0,0,0-4.64,1.96,8.326,8.326,0,0,0-1.52,5.24,8.158,8.158,0,0,0,.76,3.68,6.738,6.738,0,0,0,2.08,2.48,8.807,8.807,0,0,0,3.08,1.4,15.927,15.927,0,0,0,10.76-1.2,30.053,30.053,0,0,0,6.52-4.32,53.256,53.256,0,0,0,5.96-6.04q2.84-3.36,5.36-6.76t4.6-6.56q2.08-3.16,3.68-5.4l-.16-.16q-1.28,1.52-2.84,3.08a30.97,30.97,0,0,1-3.32,2.88,18.454,18.454,0,0,1-3.68,2.16,9.877,9.877,0,0,1-4,.84,5.837,5.837,0,0,1-2.64-.56,5.314,5.314,0,0,1-1.84-1.48,5.918,5.918,0,0,1-1.04-2.04,7.853,7.853,0,0,1-.32-2.16,13.483,13.483,0,0,1,1.08-5.12,26.609,26.609,0,0,1,2.84-5.16,30.825,30.825,0,0,1,4.08-4.72,36.308,36.308,0,0,1,4.84-3.88,26.661,26.661,0,0,1,5.08-2.68,13.062,13.062,0,0,1,4.72-1q3.12,0,4.52,1.56a5.279,5.279,0,0,1,1.4,3.64h.24l2.96-4.56Zm-14.8.32a10.054,10.054,0,0,0-5.72,2.2,29.975,29.975,0,0,0-5.76,5.48,32.822,32.822,0,0,0-4.44,7.12,17.354,17.354,0,0,0-1.76,7.2,4.229,4.229,0,0,0,.92,2.84,2.96,2.96,0,0,0,2.36,1.08,6.891,6.891,0,0,0,2.92-.92,20.475,20.475,0,0,0,3.76-2.56,40.647,40.647,0,0,0,3.96-3.84,33.329,33.329,0,0,0,3.56-4.68,28.164,28.164,0,0,0,2.56-5.16,15.136,15.136,0,0,0,1-5.32,3.961,3.961,0,0,0-.76-2.4A3.009,3.009,0,0,0,576.26,47.8Zm49.92-28.16L597.86,61.72l.16.16q1.6-2,3.76-4.6a50.858,50.858,0,0,1,4.68-4.92,29.366,29.366,0,0,1,5.32-3.92,11.2,11.2,0,0,1,5.6-1.6q4.88,0,4.88,4.88a6.809,6.809,0,0,1-.92,3.04,31.843,31.843,0,0,1-2.32,3.72q-1.4,1.96-3,3.96t-3,3.88a33.012,33.012,0,0,0-2.32,3.52,5.958,5.958,0,0,0-.92,2.76,2.18,2.18,0,0,0,.52,1.48,1.758,1.758,0,0,0,1.4.6,8.772,8.772,0,0,0,4.04-1.16,29.42,29.42,0,0,0,4.56-3.04,55.85,55.85,0,0,0,4.68-4.2q2.32-2.32,4.28-4.6t3.52-4.32a30.4,30.4,0,0,0,2.28-3.32l.48.16a40.708,40.708,0,0,1-2.48,3.68q-1.6,2.16-3.64,4.56t-4.4,4.76a56.377,56.377,0,0,1-4.72,4.24,26.788,26.788,0,0,1-4.68,3.04,9.73,9.73,0,0,1-4.32,1.16,4.473,4.473,0,0,1-4.72-4.8,8.236,8.236,0,0,1,.92-3.52,26.128,26.128,0,0,1,2.32-3.88q1.4-1.96,3-3.92t3-3.72a34.837,34.837,0,0,0,2.32-3.24,5.044,5.044,0,0,0,.92-2.52,1.962,1.962,0,0,0-.72-1.76,3.1,3.1,0,0,0-1.76-.48,8.742,8.742,0,0,0-4.44,1.48,32.024,32.024,0,0,0-5.04,3.88,62.909,62.909,0,0,0-5.16,5.4q-2.56,3-4.84,6.04t-4,5.76q-1.72,2.72-2.68,4.64h-5.2q4.4-6.88,9.04-14t9.24-14.16q4.6-7.04,9-13.88t8.32-13.08Zm23.2,30.4a2.19,2.19,0,0,0-.6-1.68,2.087,2.087,0,0,0-1.48-.56,6.634,6.634,0,0,0-3.64,1.32,25.107,25.107,0,0,0-3.88,3.28,32.685,32.685,0,0,0-3.48,4.2,26.121,26.121,0,0,0-2.36,4,30.508,30.508,0,0,0,4.4-1.24,32.136,32.136,0,0,0,5.08-2.28,18.248,18.248,0,0,0,4.2-3.16A5.481,5.481,0,0,0,649.38,50.04Zm12.96,4.24a52.263,52.263,0,0,1-3,4.4,50.359,50.359,0,0,1-4.08,4.76A66.542,66.542,0,0,1,650.38,68a44.062,44.062,0,0,1-5.4,3.92,29.508,29.508,0,0,1-5.64,2.72,16.68,16.68,0,0,1-5.56,1,7.326,7.326,0,0,1-5.2-1.72A6.406,6.406,0,0,1,626.74,69a15.469,15.469,0,0,1,2.12-7.4,31.39,31.39,0,0,1,5.4-7.16,31.981,31.981,0,0,1,7.2-5.44,15.6,15.6,0,0,1,7.52-2.16,5.1,5.1,0,0,1,3.12.84,2.862,2.862,0,0,1,1.12,2.44,5.031,5.031,0,0,1-2.08,3.72,23.847,23.847,0,0,1-5.08,3.28,52.353,52.353,0,0,1-6.44,2.64,55.259,55.259,0,0,1-6.08,1.72,16.908,16.908,0,0,0-1.44,3.6,14.775,14.775,0,0,0-.56,4,8.823,8.823,0,0,0,.2,1.88,5.78,5.78,0,0,0,.64,1.68,3.559,3.559,0,0,0,1.2,1.24,3.455,3.455,0,0,0,1.88.48,14.685,14.685,0,0,0,6.2-1.72,40.26,40.26,0,0,0,7.24-4.6,57.71,57.71,0,0,0,7.04-6.56,50.059,50.059,0,0,0,5.76-7.6ZM675.7,38.2l-6.32,9.28h10.56l-.48.96H668.74q-3.2,5.2-5.72,9T658.78,64a46.208,46.208,0,0,0-2.6,4.64,8.016,8.016,0,0,0-.88,3.32,2.239,2.239,0,0,0,1.04,2.12,4.716,4.716,0,0,0,2.4.6,12.156,12.156,0,0,0,6.36-2.2,47.435,47.435,0,0,0,6.92-5.4,87.929,87.929,0,0,0,6.56-6.8q3.12-3.6,5.28-6.48l.48.32q-2.72,3.44-5.96,7.24a79.255,79.255,0,0,1-6.68,6.96,42.616,42.616,0,0,1-6.92,5.24,12.94,12.94,0,0,1-6.6,2.08,6.42,6.42,0,0,1-4.28-1.52,5.248,5.248,0,0,1-1.8-4.24,10.074,10.074,0,0,1,1.04-4.12,40.856,40.856,0,0,1,2.72-4.92q1.68-2.64,3.8-5.76t4.36-6.64H659.7l.48-.96h4.48l6.24-9.28Zm22.24,0-6.32,9.28h10.56l-.48.96H690.98q-3.2,5.2-5.72,9T681.02,64a46.208,46.208,0,0,0-2.6,4.64,8.016,8.016,0,0,0-.88,3.32,2.239,2.239,0,0,0,1.04,2.12,4.716,4.716,0,0,0,2.4.6,12.156,12.156,0,0,0,6.36-2.2,47.435,47.435,0,0,0,6.92-5.4,87.929,87.929,0,0,0,6.56-6.8q3.12-3.6,5.28-6.48l.48.32q-2.72,3.44-5.96,7.24a79.255,79.255,0,0,1-6.68,6.96,42.616,42.616,0,0,1-6.92,5.24,12.94,12.94,0,0,1-6.6,2.08,6.42,6.42,0,0,1-4.28-1.52,5.248,5.248,0,0,1-1.8-4.24,10.074,10.074,0,0,1,1.04-4.12,40.856,40.856,0,0,1,2.72-4.92q1.68-2.64,3.8-5.76t4.36-6.64h-4.32l.48-.96h4.48l6.24-9.28Zm17.12,9.28q-4.4,6.32-7.44,10.64t-4.92,7.2a49.559,49.559,0,0,0-2.72,4.56,6.532,6.532,0,0,0-.84,2.72q0,2.08,1.68,2.08a8,8,0,0,0,3.72-1.16,31.775,31.775,0,0,0,4.44-3,54.339,54.339,0,0,0,4.64-4.16q2.32-2.32,4.36-4.6t3.6-4.4a29.758,29.758,0,0,0,2.28-3.48l.64.4q-.96,1.6-2.6,3.84t-3.72,4.6q-2.08,2.36-4.4,4.68a47.953,47.953,0,0,1-4.72,4.16,28.182,28.182,0,0,1-4.68,2.96,9.622,9.622,0,0,1-4.2,1.12,4.01,4.01,0,0,1-3.2-1.2,3.943,3.943,0,0,1-1.04-2.64,9.511,9.511,0,0,1,.76-3.56,31.988,31.988,0,0,1,2.44-4.6q1.68-2.72,4.36-6.6t6.44-9.56ZM719.7,32.6a2.423,2.423,0,0,1,1.84.76,2.814,2.814,0,0,1,0,3.76,2.607,2.607,0,0,1-3.68,0,2.815,2.815,0,0,1,0-3.76A2.423,2.423,0,0,1,719.7,32.6Zm7.36,30.96q3.76-6.08,7.4-12.16a82.472,82.472,0,0,0,6.2-12.72,19.418,19.418,0,0,1,2.4-4.8,3.257,3.257,0,0,1,2.64-1.28,2.489,2.489,0,0,1,1.88.8,2.689,2.689,0,0,1,.76,1.92,4.621,4.621,0,0,1-1.16,3q-1.16,1.4-2.2,2.52-4.8,5.44-9.16,11.16t-8.28,11.88Zm-4.24,5.52a3.006,3.006,0,1,1-2.08.88A2.844,2.844,0,0,1,722.82,69.08Z" transform="translate(28 1321)" fill="#707070"/><path d="M31.52,40.72c0,.2.12.28.32.28H34.6c.2,0,.28-.08.28-.32V17.6h8.48c.2,0,.28-.12.24-.28V14.68c-.04-.2-.12-.28-.32-.28H23.56a.279.279,0,0,0-.32.24l-.44,2.68c-.04.2.04.28.2.28h8.52ZM48.8,26.32a6.664,6.664,0,0,1,4.96-2.2c2.8,0,4.16,2.04,4.16,5.12V40.68c0,.24.08.32.28.32h2.76c.2,0,.28-.08.28-.28V28.88c0-6.32-3.68-7.72-6.48-7.72a8.509,8.509,0,0,0-5.96,2.32V12.52c0-.16-.04-.2-.24-.2H45.72c-.24,0-.24.08-.24.24V40.72c0,.2.04.28.24.28h2.84c.2,0,.24-.04.24-.24Zm28.76,5.36a32.878,32.878,0,0,0,4.12-.16.267.267,0,0,0,.28-.24,10.7,10.7,0,0,0,.16-2.08c0-3.4-2.08-8.04-7.8-8.04-5.56,0-8.84,4.68-8.84,10.28,0,4.88,2.48,9.96,9.4,9.96a12.25,12.25,0,0,0,5.64-1.16.4.4,0,0,0,.2-.4V37.56c0-.16-.08-.24-.2-.16a11.257,11.257,0,0,1-5,1.08c-4.52,0-6.72-3-6.68-6.8ZM68.88,29.2c.36-2.68,2-5.28,5.32-5.28a4.662,4.662,0,0,1,4.72,4.76,1.641,1.641,0,0,1-.04.44,15.973,15.973,0,0,1-2.56.08Z" transform="translate(43 1270)" fill="#707070"/><path d="M37.1,37.8c0-.2-.08-.2-.24-.16a13.468,13.468,0,0,1-5,.72c-4.2,0-10.48-2.36-10.48-10.72,0-6.4,4.28-10.48,10.56-10.48a11.474,11.474,0,0,1,5.12.92c.12.04.28.04.28-.2V15.2a.317.317,0,0,0-.2-.32,12.319,12.319,0,0,0-5.12-.72c-8.52,0-14.04,5.56-14.04,13.56,0,9.8,6.84,13.68,13.52,13.68a14.459,14.459,0,0,0,5.4-.76c.16-.04.2-.2.2-.4Zm3.88-.84c0,3.76,1.88,4.44,3.84,4.44a4.893,4.893,0,0,0,1.84-.28c.16-.08.2-.12.2-.32V38.72c0-.16-.04-.24-.16-.24a3.233,3.233,0,0,1-.8.12c-.96,0-1.6-.36-1.6-1.92V12.56c0-.16-.04-.24-.24-.24h-2.8c-.2,0-.28.04-.28.24ZM65.78,21.8c0-.16,0-.24-.24-.24h-2.8c-.2,0-.28.08-.28.24V36.4a6,6,0,0,1-4.64,2.04c-2.8,0-4.24-1.88-4.24-4.96V21.8c0-.16-.04-.24-.2-.24H50.54c-.2,0-.28.04-.28.24V33.88c0,5.8,3.2,7.52,6.6,7.52a7.891,7.891,0,0,0,5.8-2.32,10.487,10.487,0,0,0,.24,1.72c.08.16.12.2.32.2h2.56c.2,0,.24-.08.24-.24a26.16,26.16,0,0,1-.24-4Zm5.92-9.48c-.2,0-.28.04-.28.24V40.24a.35.35,0,0,0,.24.36,17.294,17.294,0,0,0,5.48.8c5.64,0,11.08-3.68,11.08-10.88,0-5.4-3.6-9.36-9.12-9.36a11.388,11.388,0,0,0-4.32.8v-9.4c0-.24-.08-.24-.28-.24ZM84.82,30.8c0,5.16-3.56,7.72-7.4,7.72a8.514,8.514,0,0,1-2.64-.32V24.76a9.5,9.5,0,0,1,3.8-.68C82.42,24.08,84.82,26.72,84.82,30.8Z" transform="translate(672 1422)" fill="#707070"/><path d="M72.68,142a.742.742,0,0,0,.84-.84V103.92H89.48c1.4,0,2.1.56,3.22,2.24,7,10.78,18.62,28.7,22.96,35.28a1.744,1.744,0,0,0,1.54.56h11.76c.7,0,.7-.56.42-1.12-3.64-6.02-22.4-33.6-27.16-40.18,10.36-3.5,19.32-11.62,19.32-24.78,0-17.92-13.72-26.74-34.3-26.74-9.38,0-16.52.14-24.36.42-.7,0-.84.42-.84,1.12v90.44c0,.7.28.84.84.84Zm.84-48.3V59.82c2.8-.14,7.98-.28,13.3-.28,14.98,0,23.1,6.3,23.1,16.94,0,10.36-8.12,17.22-21.42,17.22Zm102.76,15.68c6.16,0,12.32-.14,14.42-.56a.936.936,0,0,0,.98-.84,37.465,37.465,0,0,0,.56-7.28c0-11.9-7.28-28.14-27.3-28.14-19.46,0-30.94,16.38-30.94,35.98,0,17.08,8.68,34.86,32.9,34.86,8.82,0,14.98-1.68,19.74-4.06a1.4,1.4,0,0,0,.7-1.4v-7.98c0-.56-.28-.84-.7-.56a39.4,39.4,0,0,1-17.5,3.78c-15.82,0-23.52-10.5-23.38-23.8ZM145.9,100.7c1.26-9.38,7-18.48,18.62-18.48,13.16,0,16.52,11.62,16.52,16.66a5.743,5.743,0,0,1-.14,1.54c-.42.14-2.1.28-8.96.28Zm107.24,30.8c0-.42-.14-.7-.84-.56-3.5,1.4-7.84,1.96-13.02,1.96-13.02,0-24.64-8.26-24.64-25.06,0-15.26,10.22-24.92,24.64-24.92,5.74,0,9.38.7,12.88,2.1.56.14.98.14.98-.56V75.64c0-.7,0-.98-.56-1.26-2.24-.98-6.16-1.82-13.3-1.82-21.98,0-36.54,15.26-36.54,35.7,0,18.9,11.76,35.14,34.58,35.14,5.18,0,10.64-.42,15.26-2.24.56-.14.56-.42.56-.98Zm14.28,9.38c0,.84.42,1.12,1.12,1.12h9.66c.84,0,.98-.28.98-.98V74.8c0-.7-.28-.84-.84-.84H268.4c-.7,0-.98.28-.98.98Zm5.88-80.36a6.76,6.76,0,0,0,7.14-7.14c0-4.06-2.52-7.14-7-7.14a6.836,6.836,0,0,0-7.14,7.14C266.3,57.58,268.96,60.52,273.3,60.52Zm51.66,12.04c-11.9,0-21.14,3.78-26.04,5.6a.559.559,0,0,0-.28.56c.14,1.82.28,4.9.28,6.16V172.1c0,.7.14.84.7.84.56-.14,7-.84,10.22-1.12.7-.14.7-.42.7-.98v-28a44.589,44.589,0,0,0,7.14.56c19.88,0,40.04-12.32,40.04-37.8C357.72,86.84,345.68,72.56,324.96,72.56Zm-1.4,10.22c14.14,0,22.26,9.24,22.26,23.52,0,18.62-13.72,27.02-27.3,27.02a29.709,29.709,0,0,1-7.98-.84V85.02A37.861,37.861,0,0,1,323.56,82.78Zm87.36,26.6c6.16,0,12.32-.14,14.42-.56a.936.936,0,0,0,.98-.84,37.462,37.462,0,0,0,.56-7.28c0-11.9-7.28-28.14-27.3-28.14-19.46,0-30.94,16.38-30.94,35.98,0,17.08,8.68,34.86,32.9,34.86,8.82,0,14.98-1.68,19.74-4.06a1.4,1.4,0,0,0,.7-1.4v-7.98c0-.56-.28-.84-.7-.56a39.4,39.4,0,0,1-17.5,3.78c-15.82,0-23.52-10.5-23.38-23.8Zm-30.38-8.68c1.26-9.38,7-18.48,18.62-18.48,13.16,0,16.52,11.62,16.52,16.66a5.742,5.742,0,0,1-.14,1.54c-.42.14-2.1.28-8.96.28Zm94.22,40.32c0,.56.14.84.84.98,5.32.14,14,.28,23.52.28,21.14,0,37.24-9.24,37.24-27.72,0-13.3-8.96-19.6-14.7-22.12a22.736,22.736,0,0,0,9.94-19.32c0-8.4-3.92-23.94-31.92-23.94-8.12,0-19.04.28-24.22.42-.7.14-.7.42-.7,1.12Zm11.48-42.7h14.28a44.522,44.522,0,0,1,11.06.98c8.54,2.24,12.74,7.98,12.74,15.54,0,12.04-10.64,17.64-26.18,17.36-4.34,0-8.82-.14-11.9-.28Zm0-38.78c2.66-.14,8.12-.28,12.74-.28,13.44,0,21.14,4.9,21.14,15.4a16.168,16.168,0,0,1-7.7,14.28,89.927,89.927,0,0,0-13.16-.84H486.24Zm93.24,13.02c-19.6,0-32.2,15.68-32.2,35.42,0,17.22,9.66,35.42,32.2,35.42,18.76,0,31.92-14.28,31.92-35.56C611.4,87.68,599.22,72.56,579.48,72.56Zm-.56,10.08c14.56,0,20.58,12.46,20.58,25.48,0,17.36-9.8,25.2-19.74,25.2-13.3,0-20.72-11.34-20.72-25.62C559.04,92.72,567.16,82.64,578.92,82.64Zm75.46-10.08c-19.6,0-32.2,15.68-32.2,35.42,0,17.22,9.66,35.42,32.2,35.42,18.76,0,31.92-14.28,31.92-35.56C686.3,87.68,674.12,72.56,654.38,72.56Zm-.56,10.08c14.56,0,20.58,12.46,20.58,25.48,0,17.36-9.8,25.2-19.74,25.2-13.3,0-20.72-11.34-20.72-25.62C633.94,92.72,642.06,82.64,653.82,82.64Zm89.6-8.68a1.7,1.7,0,0,0-1.4.7c-3.64,3.92-22.96,23.94-29.54,30.52V42.46a.742.742,0,0,0-.84-.84h-9.8c-.84,0-.98.28-.98.84v98.56c0,.7.14.98.98.98h9.8c.7,0,.84-.28.84-.98v-32.9c6.72,7.28,24.36,25.76,31.64,33.18a1.723,1.723,0,0,0,1.4.7h13.3c.7,0,.98-.56.56-.98-10.22-10.22-25.48-26.04-34.58-35.56,0-.14-.14-.42,0-.56,5.18-5.04,26.32-25.48,30.24-29.82.56-.56.28-1.12-.42-1.12Z" transform="translate(7 1448)" fill="#707070"/></g></svg>