<svg xmlns="http://www.w3.org/2000/svg" width="1646.931" height="707.563" viewBox="0 0 1646.931 707.563"><g transform="translate(-95.646 -613.437)"><g transform="translate(95.646 613.437)"><path d="M77.615,7.977C57.775,21.454,55.594,50.971,55.594,50.971c-1.818,54.786,8.088,11.576-35.636,132.54S18.6,350.328,14.467,272.057,70.032,127.63,66.455,69.968s33.559-36.544,35.377-53.907S97.456-5.5,77.615,7.977Z" transform="translate(297.705 546.13) rotate(172)" fill="#ebd782"/><path d="M30.167,7.172A51.664,51.664,0,0,0,.189,45.829c-2.475,49.26,19.88,77.821,36.686,99.554s36.191,61.347,26.258,106.511S.411,371.038.411,371.038s-3.232,24.687,23.609-14.4,61.064-61.662,58.589-134.818S19.843,114.756,14.974,62.91s45.684-32.858,48.159-48.47S57.176-4.945,30.167,7.172Z" transform="matrix(0.993, 0.122, -0.122, 0.993, 157.428, 263.351)" fill="#fffa84"/><path d="M75.095,0c41.474,0,75.095,10.311,75.095,23.031S116.569,46.062,75.095,46.062,0,35.751,0,23.031,33.621,0,75.095,0Z" transform="translate(210.237 342.226) rotate(-45)" fill="#cbcbcb"/><path d="M37.212,0s11.6,466.287-17.464,466.287S2.285,0,2.285,0Z" transform="translate(272.064 328.251) rotate(-45)" fill="#cbcbcb"/><path d="M100.814,0c10.159,0,17.643,12.577,27.094,15.48,8.363,2.568,18.773-4.735,26.257,0,9.442,5.973,14.71,23.006,21.782,31.945,6.291,7.952,14.738,7.754,18.417,17.645,3.991,10.728,0,22.443,0,34.672,0,11.2,4.344,21.974.863,32.213-4.162,12.241-10.776,16-19.28,25.78-6.634,7.628-31.46,19.076-40.367,24.493-14.94,9.086-15.817,17.256-34.767,17.256A101.284,101.284,0,0,1,89,198.79c-11.182-1.3-22.454,5.649-32.552.694-4.083-2-7.764-14.6-11.678-17.256-6.4-4.339-11.3-18.6-16.674-24.493-10.124-11.113-22.731-10.661-27.028-25.78-2.413-8.489,0-22.738,0-32.213,0-8.65-2.139-26.435,0-34.672,2.461-9.475,9.65-9.233,14.823-17.645,5.422-8.817,20.842-12.45,28.879-19.3C54.6,19.746,57.656,8.8,70.507,4.682A99.558,99.558,0,0,1,100.814,0Z" transform="translate(0 158.217) rotate(-45)" fill="#a86d0e"/><path d="M56.119.753c15.436-2.72,5.139,2.477-10.054,6.8-8.124,4.8-17.4,8.983-21.152,11.117C10.58,21.4,18.5,20.5,4.6,61.108,7.928,84.666-3.321,47.046,1,41.386c.649-4.97,1.111-11.3,7.812-20.979C11.876,16.259,22.3,10.162,39.894,7.983A155.273,155.273,0,0,1,56.119.753Z" transform="matrix(-0.469, -0.883, 0.883, -0.469, 86.764, 270.775)" fill="#89590b"/><path d="M22.786,6.876,29.6,80.269l.669,94.039H0L6.338,2.509S9.645-.875,13.757.217,22.786,6.876,22.786,6.876Z" transform="translate(103.088 235.077) rotate(-45)" fill="#cbcbcb"/><path d="M24.482,7.913C33.079,58.7,31.023,178.1,31.023,178.1H.752S-2.237,75.948,3.7,19.893C5.891-.769,22.073-6.322,24.482,7.913Z" transform="translate(184.674 148.135) rotate(-45)" fill="#cbcbcb"/><path d="M27.718,14.639c3.865,56.424,2.553,132.645,2.553,132.645H0L.864,16.3S25.4-19.239,27.718,14.639Z" transform="translate(165.007 211.377) rotate(-45)" fill="#cbcbcb"/><path d="M60.907,1.143c11.488,0,19.5-2.435,30.188-.2,9.458,1.98,28.173,7.336,36.636,10.987,10.677,4.606,16.284,12.3,24.282,19.193,7.114,6.132,17.026,3.96,21.187,11.587,4.513,8.272,20.351,16.433,20.351,25.863,0,8.639,16.073,34.531,12.136,42.426-4.707,9.439-30.035,32.621-39.652,40.161-7.5,5.882-32.642-32.284-42.715-28.107-16.9,7.006-11.723-5.036-33.153-5.036-4.429,0-8.8-.174-13.356-.535-12.646-1-25.394,4.356-36.813.535-4.617-1.545-8.78-11.259-13.206-13.306-7.235-3.346-12.781-14.34-18.857-18.887C-3.515,77.256-1.6,23.025,7.49,17.741,18.6,11.281,27.779,8.778,42.313,5.606,52.97,3.279,48.878,1.143,60.907,1.143Z" transform="matrix(0.326, -0.946, 0.946, 0.326, 0.617, 195.068)" fill="#a00000"/><path d="M11.432.214C17.129,1,25.4,7.5,21.977,13.793,19.626,8.533,18.547,3.4,10.866,3.4-2.875,3.4,9.687,29.028,3.6,18.5S-1.486-1.56,11.432.214Z" transform="matrix(0.839, -0.545, 0.545, 0.839, 103.967, 229.164)" fill="#89590b"/><path d="M18.058.127c7.052.7,9.633,8.2,8.923,15.3C19.345,3.754,20.52,3.666,17.356,2.962.347,2.962,3.622,36.423.82,24.219S2.067-1.452,18.058.127Z" transform="matrix(0.899, -0.438, 0.438, 0.899, 165.996, 201.492)" fill="#89590b"/><path d="M14.494.171c7.052.7,10.224,8.86,8.312,15.185C19.873,9.908,16.956,3.71,13.793,3.007c-17.009,0-6.817,42.166-11.349,23.575S-1.5-1.408,14.494.171Z" transform="matrix(0.899, -0.438, 0.438, 0.899, 188.788, 138.955)" fill="#89590b"/><path d="M35.751.179c13.584,4.185,24.466,10.775,22.772,17.1C40.3,6.887,41.627,3.33,34.078,2.7-6.515,2.7,8.2,38.94,1.517,28.076S10.976-2.057,35.751.179Z" transform="matrix(0.848, 0.53, -0.53, 0.848, 187.319, 92.359)" fill="#89590b"/><path d="M40.787.324c10.745,2.136,5.79,3.562-1.649,2.854C-.866,3.178-.707,41.332.246,24.57S19.5-1.938,40.787.324Z" transform="translate(67.555 72.725) rotate(-4)" fill="#710101"/><path d="M17.838.364c4.7,2.4,2.532,4.005-.721,3.209-17.5,0-17.426,42.9-17.009,24.054S8.53-2.179,17.838.364Z" transform="translate(47.446 166.611) rotate(-103)" fill="#710101"/><path d="M40.448,0C51.1,3.651,46.191,6.089,38.813,4.879-.859,4.879-.7,70.1.244,41.448S18.818,5.209,40.448,0Z" transform="translate(87.06 214.527) rotate(-148)" fill="#710101"/><path d="M57.319,1.252c25.222-4.444-16.59,2.962-31.356,21.99C12.955,40.005,19.7,21,5.8,61.606,9.128,85.164-1.223,70.14.121,56.294c.224-2.331-.26-1.357,2.748-6.773S10.1,36.532,12.156,34.63C15.473,29.8,25.109,15.8,26,14.872a16.411,16.411,0,0,1,3.06-2.626C38.553,4.695,46.554,5.292,57.319,1.252Z" transform="translate(95.852 243.117) rotate(-148)" fill="#710101"/><path d="M15.725.071c6.141.388,8.388,4.568,7.77,8.527-6.649-6.506-5.626-6.555-8.381-6.947C.3,1.651,3.154,20.3.714,13.5S1.8-.809,15.725.071Z" transform="translate(153.701 179.657) rotate(-105)" fill="#89590b"/><path d="M15.93.04c6.221.221,8.5,2.6,7.872,4.857C17.066,1.191,18.1,1.164,15.312.94.306.94,3.2,11.561.724,7.687S1.823-.461,15.93.04Z" transform="translate(169.411 245.646) rotate(-145)" fill="#89590b"/><path d="M2.054,0S7.047,117.243,7.047,223.294c0,124.181,14.387,228.184,15.865,228.049-6.324.218-20.287-103.089-20.287-227.27,0-97.979-4.627-145.963-1.6-212.43C1.108,9.608.969,1.088,1.082.787,1.986.07,2.054,0,2.054,0Z" transform="matrix(0.719, -0.695, 0.695, 0.719, 280.278, 335.106)" fill="#9b9898"/><path d="M3.359.949c.971-8.582,2.283,42.5,2.283,93.684s-.833,71.216-4.161,71.216,0-20.487,0-71.67S2.388,9.532,3.359.949Z" transform="matrix(0.719, -0.695, 0.695, 0.719, 113.203, 241.609)" fill="#9b9898"/><path d="M2.62.79c.971-7,3.015,33.7,3.015,75.45,0,36.785-3.148,57.265-3.148,57.265L0,133.024s1.2-21.071,1.2-57.481C1.2,33.789,1.649,7.792,2.62.79Z" transform="matrix(0.719, -0.695, 0.695, 0.719, 203.397, 166.578)" fill="#9b9898"/><path d="M.979,1.166,1.874,0S4.121,36.4,4.121,59.224c0,34.07-.9,47.254-1.922,47.329a4.7,4.7,0,0,1-1.761.072c-.622-5.861-.4-23.935-.4-47.1C.039,25.453.979,1.166.979,1.166Z" transform="matrix(0.719, -0.695, 0.695, 0.719, 177.861, 224.748)" fill="#9b9898"/><path d="M37.958.333A65.007,65.007,0,0,0,.238,48.974C-2.877,110.956,25.253,146.893,46.4,174.239s45.538,77.192,33.04,134.02S.517,458.175.517,458.175-3.55,489.238,30.223,440.06s76.835-77.588,73.721-169.638S24.968,135.7,18.842,70.466,62.595,16.395,63.481,7.423C60.706,3.37,59.13-1.3,37.958.333Z" transform="matrix(0.993, 0.122, -0.122, 0.993, 190.306, 230.51)" fill="#fff258"/><path d="M83.942,312.93C64.1,299.454,61.921,269.937,61.921,269.937,60.1,215.151,70.009,258.361,26.285,137.4S6.615,19.41,6.488,15.407,22.613-32.512,20.794,48.851,76.359,193.278,72.782,250.94s33.559,36.544,35.377,53.907S103.783,326.407,83.942,312.93Z" transform="translate(196.502 618.202) rotate(-158)" fill="#fffa84"/><path d="M3.844,0S14.481,21.512,19.4,35.134c5.424,14.342,8.436,32,5.156,54.993S7.071,137.456,3.842,150.789A44.725,44.725,0,0,1,0,159.547s6.639-4.865,11.638-16.089c8.864-19.9,15.593-29.466,19.348-68.641C30.169,37.571,3.844,0,3.844,0Z" transform="matrix(0.993, 0.122, -0.122, 0.993, 176.155, 419.148)" fill="#e8e481"/><path d="M83.942,7.977C64.1,21.454,61.921,50.971,61.921,50.971c-1.818,54.786,8.088,11.576-35.636,132.54S6.615,301.5,6.488,305.5s16.124,47.919,14.306-33.444S76.359,127.63,72.782,69.968s33.559-36.544,35.377-53.907S103.783-5.5,83.942,7.977Z" transform="translate(118.739 286.356) rotate(-8)" fill="#fff258"/><path d="M0,0S2.907,10.393,4.726,15.817C6.732,21.527,6.949,28.9,5.736,38.06S4.487,55.1,1.728,61.411s-.395,5,2.884-2.919,1.81-12.431,3.2-28.029C7.508,15.633,0,0,0,0Z" transform="translate(216.934 555.417) rotate(30)" fill="#e8e481"/></g><path d="M82.843,55.4a31.69,31.69,0,0,1-2.016,11.086,33.247,33.247,0,0,1-5.577,9.742,28.061,28.061,0,0,1-8.466,6.92,22.591,22.591,0,0,1-10.817,2.62q-8.466,0-13.5-4.972T37.424,67.356A30.42,30.42,0,0,1,40.38,54.322,46.178,46.178,0,0,1,48.443,42.5,64.418,64.418,0,0,1,60.4,32.485a87.639,87.639,0,0,1,14.647-7.727,90.392,90.392,0,0,1,16.192-4.972A80.707,80.707,0,0,1,107.7,18.04a78.179,78.179,0,0,1,11.892.941,34.371,34.371,0,0,1,10.549,3.225q1.344-.538,3.091-1.209t3.7-1.277q1.948-.6,3.83-1.075a22.031,22.031,0,0,1,3.494-.6l.134.806A27.247,27.247,0,0,0,138,20.459a46.994,46.994,0,0,0-5.845,2.688q10.213,5.778,10.213,16.663a25.02,25.02,0,0,1-2.755,12.161,23.769,23.769,0,0,1-7.256,8.2,30.172,30.172,0,0,1-10.28,4.569,49.668,49.668,0,0,1-11.825,1.411v.269a14.239,14.239,0,0,1,6.248,4.636,12.45,12.45,0,0,1,2.083,7.458,26.335,26.335,0,0,1-1.277,7.256q-1.277,4.3-2.889,8.869-1.613,4.434-2.956,8.533a22.727,22.727,0,0,0-1.344,6.786q0,4.3,3.9,4.3a20.853,20.853,0,0,0,9.339-2.755,48.62,48.62,0,0,0,11.22-8.533,133.17,133.17,0,0,0,19.485-24.591l1.209.537q-3.091,4.838-7.323,10.817a100.979,100.979,0,0,1-10.28,12.161q-13.3,13.975-24.591,13.975a11.325,11.325,0,0,1-7.458-2.284q-2.755-2.284-2.755-6.853a21.113,21.113,0,0,1,1.545-7.122q1.545-4.166,3.427-8.6t3.359-8.869a25.114,25.114,0,0,0,1.478-7.794q0-5.106-2.755-6.719a20.272,20.272,0,0,0-7.189-2.284L103.268,64q1.478.269,2.822.4t2.822.134a25.5,25.5,0,0,0,10.75-2.217,24.828,24.828,0,0,0,8.264-6.047,27.513,27.513,0,0,0,5.308-8.936,31.234,31.234,0,0,0,1.881-10.884A16.734,16.734,0,0,0,133.839,30a11.474,11.474,0,0,0-3.83-4.972,46.341,46.341,0,0,0-13.1,12.3q-6.248,8.264-12.5,18.41T91.645,76.494A171.618,171.618,0,0,1,77.871,95.911a74.493,74.493,0,0,1-15.453,14.378,31.125,31.125,0,0,1-17.872,5.577,19.336,19.336,0,0,1-4.434-.538,13.379,13.379,0,0,1-4.1-1.68,10.012,10.012,0,0,1-3.023-2.956,7.452,7.452,0,0,1-1.209-4.233,5.268,5.268,0,0,1,1.478-3.9,5.447,5.447,0,0,1,4.031-1.478,3.964,3.964,0,0,1,3.023,1.209,4.145,4.145,0,0,1,1.142,2.956,5.672,5.672,0,0,1-.941,3.091,2.857,2.857,0,0,1-2.822,1.344,5.33,5.33,0,0,0,2.822,3.158,10.73,10.73,0,0,0,5.509,1.411q6.988,0,13.1-5.442A79.373,79.373,0,0,0,71.219,94.769q5.98-8.6,11.959-19.081t12.766-20.56a151.7,151.7,0,0,1,14.647-18.544,57.772,57.772,0,0,1,17.4-13.034,31.52,31.52,0,0,0-9.944-3.091,74.207,74.207,0,0,0-10.75-.806,73,73,0,0,0-14.177,1.478,85.524,85.524,0,0,0-14.647,4.3A81.212,81.212,0,0,0,64.7,32.418a56.355,56.355,0,0,0-11.556,9.608,45.551,45.551,0,0,0-7.928,11.959,33.912,33.912,0,0,0-2.956,14.177q0,7.391,3.628,11.691t10.213,4.3a20.383,20.383,0,0,0,10.414-2.688,27.746,27.746,0,0,0,7.928-6.853,31.04,31.04,0,0,0,5.039-9.272A30.63,30.63,0,0,0,81.23,55.4Zm95.81,16.394a3.679,3.679,0,0,0-1.008-2.822,3.506,3.506,0,0,0-2.486-.941,11.143,11.143,0,0,0-6.114,2.217,42.177,42.177,0,0,0-6.517,5.509,54.907,54.907,0,0,0-5.845,7.055,43.875,43.875,0,0,0-3.964,6.719,51.244,51.244,0,0,0,7.391-2.083,53.98,53.98,0,0,0,8.533-3.83,30.649,30.649,0,0,0,7.055-5.308A9.207,9.207,0,0,0,178.653,71.79Zm21.769,7.122a87.8,87.8,0,0,1-5.039,7.391,84.58,84.58,0,0,1-6.853,8,111.764,111.764,0,0,1-8.2,7.659,74.012,74.012,0,0,1-9.07,6.584,49.566,49.566,0,0,1-9.474,4.569,28.017,28.017,0,0,1-9.339,1.68q-5.644,0-8.734-2.889t-3.091-8.264a25.983,25.983,0,0,1,3.561-12.43,52.728,52.728,0,0,1,9.07-12.027,53.72,53.72,0,0,1,12.094-9.138,26.2,26.2,0,0,1,12.631-3.628,8.574,8.574,0,0,1,5.241,1.411,4.808,4.808,0,0,1,1.881,4.1q0,3.225-3.494,6.248a40.056,40.056,0,0,1-8.533,5.509,87.94,87.94,0,0,1-10.817,4.434,92.82,92.82,0,0,1-10.213,2.889,28.4,28.4,0,0,0-2.419,6.047,24.819,24.819,0,0,0-.941,6.719,14.821,14.821,0,0,0,.336,3.158,9.708,9.708,0,0,0,1.075,2.822,5.978,5.978,0,0,0,2.016,2.083,5.8,5.8,0,0,0,3.158.806q4.434,0,10.414-2.889a67.625,67.625,0,0,0,12.161-7.727,96.934,96.934,0,0,0,11.825-11.019,84.075,84.075,0,0,0,9.675-12.766ZM235.091,67.49h8.734q-4.972,6.988-9.541,13.572t-8.13,12.161q-3.561,5.577-5.711,9.809t-2.15,6.652q0,3.494,3.628,3.494,2.822,0,7.189-2.755a63.127,63.127,0,0,0,9.474-7.592,131.628,131.628,0,0,0,10.481-11.288,160.146,160.146,0,0,0,10.213-13.706l.806.269Q256.457,83.616,251.552,90a133.374,133.374,0,0,1-10.28,11.892,72.724,72.724,0,0,1-10.75,9.2q-5.375,3.7-10.078,3.7-3.9,0-5.711-1.948a6.571,6.571,0,0,1-1.814-4.636,11.614,11.614,0,0,1,.6-3.7q.6-1.814,1.277-3.7l-.269-.134q-1.747,1.881-4.367,4.367a51.808,51.808,0,0,1-5.644,4.636,38.343,38.343,0,0,1-6.248,3.628,14.827,14.827,0,0,1-6.181,1.478q-4.972,0-6.988-3.091a12.51,12.51,0,0,1-2.016-6.988q0-5.509,3.494-12.161a58.923,58.923,0,0,1,8.869-12.5,55.412,55.412,0,0,1,11.691-9.742q6.316-3.9,11.959-3.9a13.642,13.642,0,0,1,4.7.739,9.6,9.6,0,0,1,3.359,2.016,9.316,9.316,0,0,1,2.083,2.889,17.465,17.465,0,0,1,1.142,3.359h.269ZM191.15,105.116a7.751,7.751,0,0,0,1.277,4.77,4.218,4.218,0,0,0,3.561,1.68,11.662,11.662,0,0,0,5.375-1.68,39.491,39.491,0,0,0,6.45-4.5,64.65,64.65,0,0,0,6.652-6.517,55.031,55.031,0,0,0,5.845-7.861,49.375,49.375,0,0,0,4.166-8.466,23.343,23.343,0,0,0,1.613-8.2,5.787,5.787,0,0,0-6.047-6.316q-4.031,0-9,3.494a47.369,47.369,0,0,0-9.406,8.936,55.817,55.817,0,0,0-7.458,12.027A30.247,30.247,0,0,0,191.15,105.116ZM333.723,20.728q-5.241,8.331-11.422,17.6T309.939,56.74q-6.181,9.138-11.892,17.67T287.9,90.066q-4.434,7.122-7.055,12.3t-2.62,7.592a3.522,3.522,0,0,0,.739,2.352,2.742,2.742,0,0,0,2.217.873q3.359,0,7.659-2.688a68.6,68.6,0,0,0,10.347-8.466A121.071,121.071,0,0,0,309.4,90.67a114.226,114.226,0,0,0,8.6-12.3l1.075.537q-1.209,2.15-3.158,5.039t-4.3,5.98q-2.352,3.091-5.039,6.248t-5.509,5.98a69.934,69.934,0,0,1-10.616,9.07q-5.241,3.561-9.675,3.561-4.3,0-6.383-1.814a5.873,5.873,0,0,1-2.083-4.636,12.123,12.123,0,0,1,1.075-4.972,47.986,47.986,0,0,1,2.15-4.3l-.269-.134q-2.15,2.419-4.77,5.173a60.989,60.989,0,0,1-5.577,5.173,29.95,29.95,0,0,1-6.248,3.964,15.8,15.8,0,0,1-6.786,1.545q-4.838,0-7.458-2.956a10.19,10.19,0,0,1-2.62-6.988q0-5.644,3.9-12.363a59.611,59.611,0,0,1,9.742-12.5,62.378,62.378,0,0,1,12.564-9.675q6.719-3.9,12.5-3.9a8.794,8.794,0,0,1,9.272,9.541h.4l34.669-55.229ZM286.02,76.09a13.79,13.79,0,0,0-1.075-5.644q-1.075-2.419-4.972-2.419a12.285,12.285,0,0,0-5.98,1.881,37.174,37.174,0,0,0-6.652,4.972,62.318,62.318,0,0,0-6.517,7.055A70.3,70.3,0,0,0,255.248,90a52.275,52.275,0,0,0-3.9,8,19.983,19.983,0,0,0-1.478,6.988,9.367,9.367,0,0,0,1.075,4.7q1.075,1.881,3.9,1.881a11.261,11.261,0,0,0,5.577-1.881,47.372,47.372,0,0,0,6.652-4.9,66.832,66.832,0,0,0,6.853-6.92,91.678,91.678,0,0,0,6.047-7.794,49.638,49.638,0,0,0,4.367-7.592A15.918,15.918,0,0,0,286.02,76.09Zm47.569-8.6q-4.838,6.988-9.675,13.438t-8.667,11.825q-3.83,5.375-6.249,9.474t-2.419,6.517q0,3.9,3.763,3.9,3.9,0,9.07-3.763a76.932,76.932,0,0,0,10.952-10.011,166.5,166.5,0,0,0,11.758-14.378q5.98-8.13,11.489-17h8.331q-7.928,10.884-14.781,22.374t-14.378,22.777a56.028,56.028,0,0,0,24.389-11.22A94.614,94.614,0,0,0,377.8,79.181l.941.4a89.264,89.264,0,0,1-21.97,23.717q-12.3,8.936-24.927,10.952-5.241,7.122-10.683,14.445a88.629,88.629,0,0,1-11.96,13.169,59.546,59.546,0,0,1-14.311,9.541,40.593,40.593,0,0,1-17.6,3.7,30.193,30.193,0,0,1-8.4-1.142,23.972,23.972,0,0,1-6.92-3.158,16.1,16.1,0,0,1-4.7-4.838,11.288,11.288,0,0,1-1.747-6.047q0-6.988,4.636-10.213a19.157,19.157,0,0,1,11.22-3.225v.4a11.187,11.187,0,0,0-7.122,4.367,14.159,14.159,0,0,0-2.284,8.264,12.918,12.918,0,0,0,1.344,5.98,13.452,13.452,0,0,0,3.494,4.367,15.8,15.8,0,0,0,4.9,2.688,17.552,17.552,0,0,0,5.711.941,27.028,27.028,0,0,0,12.228-2.956A52.383,52.383,0,0,0,301,142.741a93.684,93.684,0,0,0,10.414-10.952q4.972-6.114,9.406-12.631t8.264-12.766q3.83-6.249,7.055-11.22l-.269-.269q-2.15,2.553-5.241,5.98a67.027,67.027,0,0,1-6.786,6.517,42.9,42.9,0,0,1-7.861,5.241,18.532,18.532,0,0,1-8.6,2.15q-4.3,0-6.181-1.747a6.108,6.108,0,0,1-1.881-4.7,13.541,13.541,0,0,1,1.411-5.711,58.49,58.49,0,0,1,4.5-7.592q3.091-4.569,7.861-11.153T324.586,67.49ZM352.8,129.572a33.623,33.623,0,0,0,6.383-1.814,27.706,27.706,0,0,0,6.114-3.292,19.023,19.023,0,0,0,4.7-4.77,12.587,12.587,0,0,0,2.15-6.248,3.238,3.238,0,0,1-1.612.269,5.3,5.3,0,0,1-3.023-1.075,3.808,3.808,0,0,1-1.545-3.359,5.651,5.651,0,0,1,1.411-3.964,4.929,4.929,0,0,1,3.83-1.545,4.44,4.44,0,0,1,3.9,1.948,7.306,7.306,0,0,1,1.344,4.233,14.441,14.441,0,0,1-2.083,7.525,22.451,22.451,0,0,1-5.509,6.181,32.3,32.3,0,0,1-7.659,4.434,33.083,33.083,0,0,1-8.4,2.284Zm75.788-50.391a6.675,6.675,0,0,1,4.636,1.411,4.769,4.769,0,0,1,1.545,3.7,5.086,5.086,0,0,1-1.209,3.427,4.034,4.034,0,0,1-3.225,1.411,4.385,4.385,0,0,1-1.545-.336,2.447,2.447,0,0,1-1.277-1.008,8.045,8.045,0,0,0-1.948,3.9,23.952,23.952,0,0,0-.47,4.838,14.361,14.361,0,0,0,1.68,6.719,16.97,16.97,0,0,0,4.837,5.644,25.782,25.782,0,0,0,7.592,3.9,30.88,30.88,0,0,0,9.809,1.478q9.138,0,15.453-4.166A32.8,32.8,0,0,0,474.684,99.4a48.1,48.1,0,0,0,5.644-14.445,77.744,77.744,0,0,0,1.881-15.319,100.27,100.27,0,0,1,2.352-21.5,54.067,54.067,0,0,1,6.316-16.192,29.911,29.911,0,0,1,10.213-10.28,26.989,26.989,0,0,1,14.042-3.628q7.122,0,11.556,3.427a10.771,10.771,0,0,1,4.434,8.936,7.394,7.394,0,0,1-3.023,6.45A12.08,12.08,0,0,1,520.909,39a20.486,20.486,0,0,0,2.217-4.434,16.733,16.733,0,0,0,.739-5.375q0-4.838-2.822-7.189a10.16,10.16,0,0,0-6.719-2.352,17.936,17.936,0,0,0-8.936,2.083,18.983,18.983,0,0,0-6.249,5.711,30.988,30.988,0,0,0-4.1,8.466,76.689,76.689,0,0,0-2.486,10.28q-.941,5.442-1.411,11.22t-.873,11.422q-.941,13.841-4.9,22.911a42.818,42.818,0,0,1-9.742,14.445,32.63,32.63,0,0,1-12.9,7.525,50.406,50.406,0,0,1-14.647,2.15,30.5,30.5,0,0,1-11.086-1.948,26.244,26.244,0,0,1-8.667-5.375,23.324,23.324,0,0,1-5.577-8.13A26.778,26.778,0,0,1,420.8,90.066a13.332,13.332,0,0,1,2.15-7.794A6.585,6.585,0,0,1,428.593,79.181ZM539.319,71.79a3.679,3.679,0,0,0-1.008-2.822,3.506,3.506,0,0,0-2.486-.941,11.143,11.143,0,0,0-6.114,2.217,42.18,42.18,0,0,0-6.517,5.509,54.906,54.906,0,0,0-5.845,7.055,43.867,43.867,0,0,0-3.964,6.719,51.243,51.243,0,0,0,7.391-2.083,53.98,53.98,0,0,0,8.533-3.83,30.648,30.648,0,0,0,7.055-5.308A9.207,9.207,0,0,0,539.319,71.79Zm21.769,7.122a87.782,87.782,0,0,1-5.039,7.391,84.569,84.569,0,0,1-6.853,8,111.777,111.777,0,0,1-8.2,7.659,74.016,74.016,0,0,1-9.07,6.584,49.566,49.566,0,0,1-9.474,4.569,28.017,28.017,0,0,1-9.339,1.68q-5.644,0-8.734-2.889t-3.091-8.264a25.983,25.983,0,0,1,3.561-12.43,52.731,52.731,0,0,1,9.07-12.027,53.722,53.722,0,0,1,12.094-9.138,26.2,26.2,0,0,1,12.631-3.628,8.573,8.573,0,0,1,5.241,1.411,4.808,4.808,0,0,1,1.881,4.1q0,3.225-3.494,6.248a40.058,40.058,0,0,1-8.533,5.509,87.935,87.935,0,0,1-10.817,4.434,92.819,92.819,0,0,1-10.213,2.889,28.4,28.4,0,0,0-2.419,6.047,24.82,24.82,0,0,0-.941,6.719,14.824,14.824,0,0,0,.336,3.158,9.708,9.708,0,0,0,1.075,2.822,5.978,5.978,0,0,0,2.016,2.083,5.8,5.8,0,0,0,3.158.806q4.434,0,10.414-2.889a67.627,67.627,0,0,0,12.161-7.727,96.931,96.931,0,0,0,11.825-11.019,84.083,84.083,0,0,0,9.675-12.766ZM583.528,51.9,572.913,67.49H590.65l-.806,1.613H571.838q-5.375,8.734-9.608,15.117t-7.122,11.019a77.63,77.63,0,0,0-4.367,7.794,13.464,13.464,0,0,0-1.478,5.577,3.761,3.761,0,0,0,1.747,3.561,7.921,7.921,0,0,0,4.031,1.008q4.838,0,10.683-3.7a79.674,79.674,0,0,0,11.624-9.07,147.679,147.679,0,0,0,11.019-11.422q5.241-6.047,8.869-10.884l.806.538Q593.472,84.422,588.03,90.8A133.136,133.136,0,0,1,576.81,102.5a71.583,71.583,0,0,1-11.624,8.8,21.735,21.735,0,0,1-11.086,3.494,10.784,10.784,0,0,1-7.189-2.553,8.815,8.815,0,0,1-3.023-7.122,16.921,16.921,0,0,1,1.747-6.92,68.648,68.648,0,0,1,4.569-8.264q2.822-4.434,6.383-9.675T563.91,69.1h-7.256l.806-1.613h7.525L575.466,51.9Zm37.357,0L610.269,67.49h17.738L627.2,69.1H609.194q-5.375,8.734-9.608,15.117t-7.122,11.019a77.63,77.63,0,0,0-4.367,7.794,13.464,13.464,0,0,0-1.478,5.577,3.761,3.761,0,0,0,1.747,3.561,7.922,7.922,0,0,0,4.031,1.008q4.838,0,10.683-3.7a79.674,79.674,0,0,0,11.624-9.07,147.68,147.68,0,0,0,11.019-11.422q5.241-6.047,8.869-10.884l.806.538q-4.569,5.778-10.011,12.161a133.118,133.118,0,0,1-11.22,11.691,71.583,71.583,0,0,1-11.624,8.8,21.735,21.735,0,0,1-11.086,3.494,10.784,10.784,0,0,1-7.189-2.553,8.815,8.815,0,0,1-3.023-7.122,16.921,16.921,0,0,1,1.747-6.92,68.648,68.648,0,0,1,4.569-8.264q2.822-4.434,6.383-9.675T601.266,69.1H594.01l.806-1.613h7.525L612.822,51.9ZM649.641,67.49q-7.391,10.616-12.5,17.872T628.88,97.456a83.247,83.247,0,0,0-4.569,7.659,10.971,10.971,0,0,0-1.411,4.569q0,3.494,2.822,3.494a13.435,13.435,0,0,0,6.248-1.948,53.366,53.366,0,0,0,7.458-5.039,91.282,91.282,0,0,0,7.794-6.988q3.9-3.9,7.323-7.727t6.047-7.391a49.978,49.978,0,0,0,3.83-5.845l1.075.672q-1.612,2.688-4.367,6.45t-6.248,7.727q-3.494,3.964-7.391,7.861a80.546,80.546,0,0,1-7.928,6.988,47.335,47.335,0,0,1-7.861,4.972,16.163,16.163,0,0,1-7.055,1.881q-3.628,0-5.375-2.016a6.623,6.623,0,0,1-1.747-4.434,15.975,15.975,0,0,1,1.277-5.98,53.726,53.726,0,0,1,4.1-7.727q2.822-4.569,7.323-11.086T641.041,67.49ZM657.435,42.5a4.071,4.071,0,0,1,3.091,1.277,4.727,4.727,0,0,1,0,6.316,4.38,4.38,0,0,1-6.181,0,4.728,4.728,0,0,1,0-6.316A4.071,4.071,0,0,1,657.435,42.5ZM644,129.572a33.622,33.622,0,0,0,6.383-1.814,27.707,27.707,0,0,0,6.114-3.292,19.024,19.024,0,0,0,4.7-4.77,12.587,12.587,0,0,0,2.15-6.248,3.238,3.238,0,0,1-1.612.269,5.3,5.3,0,0,1-3.023-1.075,3.808,3.808,0,0,1-1.545-3.359,5.651,5.651,0,0,1,1.411-3.964,4.929,4.929,0,0,1,3.83-1.545,4.44,4.44,0,0,1,3.9,1.948,7.306,7.306,0,0,1,1.344,4.233,14.442,14.442,0,0,1-2.083,7.525,22.45,22.45,0,0,1-5.509,6.181,32.3,32.3,0,0,1-7.659,4.434,33.083,33.083,0,0,1-8.4,2.284Zm75.788-50.391a6.675,6.675,0,0,1,4.636,1.411,4.768,4.768,0,0,1,1.545,3.7,5.086,5.086,0,0,1-1.209,3.427,4.034,4.034,0,0,1-3.225,1.411,4.386,4.386,0,0,1-1.545-.336,2.447,2.447,0,0,1-1.276-1.008,8.045,8.045,0,0,0-1.948,3.9,23.954,23.954,0,0,0-.47,4.838,14.362,14.362,0,0,0,1.68,6.719,16.97,16.97,0,0,0,4.837,5.644,25.783,25.783,0,0,0,7.592,3.9,30.88,30.88,0,0,0,9.809,1.478q9.138,0,15.453-4.166A32.8,32.8,0,0,0,765.877,99.4a48.1,48.1,0,0,0,5.644-14.445A77.737,77.737,0,0,0,773.4,69.64a100.27,100.27,0,0,1,2.352-21.5,54.068,54.068,0,0,1,6.316-16.192,29.911,29.911,0,0,1,10.213-10.28,26.989,26.989,0,0,1,14.042-3.628q7.122,0,11.556,3.427a10.771,10.771,0,0,1,4.434,8.936,7.394,7.394,0,0,1-3.023,6.45A12.08,12.08,0,0,1,812.1,39a20.483,20.483,0,0,0,2.217-4.434,16.731,16.731,0,0,0,.739-5.375q0-4.838-2.822-7.189a10.16,10.16,0,0,0-6.719-2.352,17.936,17.936,0,0,0-8.936,2.083,18.983,18.983,0,0,0-6.248,5.711,30.985,30.985,0,0,0-4.1,8.466,76.689,76.689,0,0,0-2.486,10.28q-.941,5.442-1.411,11.22t-.873,11.422q-.941,13.841-4.9,22.911a42.817,42.817,0,0,1-9.742,14.445,32.63,32.63,0,0,1-12.9,7.525,50.406,50.406,0,0,1-14.647,2.15,30.5,30.5,0,0,1-11.086-1.948,26.245,26.245,0,0,1-8.667-5.375,23.324,23.324,0,0,1-5.577-8.13,26.777,26.777,0,0,1-1.948-10.347,13.333,13.333,0,0,1,2.15-7.794A6.585,6.585,0,0,1,719.786,79.181Zm118.52-37.76q-7.122,10.884-14.781,21.366t-14.647,21.5l.269.269q2.016-2.688,4.7-5.845a60.018,60.018,0,0,1,5.778-5.913,30.7,30.7,0,0,1,6.719-4.569,16.361,16.361,0,0,1,7.391-1.814,11.511,11.511,0,0,1,7.256,2.284q2.956,2.284,2.956,7.928a23.18,23.18,0,0,1-.941,6.652,28.917,28.917,0,0,1-2.486,5.913,34.227,34.227,0,0,1-3.494,5.106q-1.948,2.352-3.964,4.367l.269.269A50.111,50.111,0,0,0,850.87,92.35q7.861-4.838,15.655-14.513l1.075.538a77.417,77.417,0,0,1-11.288,11.556,50.4,50.4,0,0,1-9.675,6.248,38.5,38.5,0,0,1-8.2,2.889q-3.762.806-7.122,1.613-2.285,1.747-5.174,4.166t-6.114,4.636a41.412,41.412,0,0,1-6.719,3.763,17.448,17.448,0,0,1-7.122,1.545,7.528,7.528,0,0,1-3.7-1.008,3.477,3.477,0,0,1-1.814-3.292,5.551,5.551,0,0,1,2.755-4.7,23.272,23.272,0,0,1,6.719-3.023,59.983,59.983,0,0,1,8.264-1.747q4.3-.6,7.256-.873a39.943,39.943,0,0,0,3.561-4.9,53.02,53.02,0,0,0,3.292-6.114,43.712,43.712,0,0,0,2.419-6.652,24.2,24.2,0,0,0,.941-6.383q0-4.7-1.344-6.114a4.3,4.3,0,0,0-3.225-1.411,12.087,12.087,0,0,0-6.517,2.217,41.133,41.133,0,0,0-6.92,5.778,95.343,95.343,0,0,0-6.92,7.928q-3.427,4.367-6.383,8.667t-5.375,8q-2.419,3.7-4.031,5.845-1.209,1.747-3.494,5.106t-5.106,7.659q-2.822,4.3-5.98,9.272t-6.249,10.011q-3.091,5.039-5.912,9.742t-4.972,8.466h-8.331q18.141-29.16,37.021-57.849t37.289-57.983Zm-30.235,71.757a9.641,9.641,0,0,0,4.5-1.344,32.451,32.451,0,0,0,4.838-3.225,51.315,51.315,0,0,0,4.233-3.763q1.881-1.881,2.688-2.822l-.269-.269q-2.284.4-5.711.873a59.076,59.076,0,0,0-6.584,1.277,18.479,18.479,0,0,0-5.375,2.217,4.34,4.34,0,0,0-2.217,3.83,2.713,2.713,0,0,0,1.209,2.419A4.74,4.74,0,0,0,808.071,113.178ZM901.866,67.49H910.6q-4.972,6.988-9.541,13.572t-8.13,12.161q-3.561,5.577-5.711,9.809t-2.15,6.652q0,3.494,3.628,3.494,2.822,0,7.189-2.755a63.132,63.132,0,0,0,9.473-7.592,131.62,131.62,0,0,0,10.481-11.288,160.108,160.108,0,0,0,10.213-13.706l.806.269Q923.231,83.616,918.327,90a133.371,133.371,0,0,1-10.28,11.892,72.727,72.727,0,0,1-10.75,9.2q-5.375,3.7-10.078,3.7-3.9,0-5.711-1.948a6.571,6.571,0,0,1-1.814-4.636,11.613,11.613,0,0,1,.6-3.7q.6-1.814,1.277-3.7l-.269-.134q-1.747,1.881-4.367,4.367a51.8,51.8,0,0,1-5.644,4.636,38.34,38.34,0,0,1-6.249,3.628,14.826,14.826,0,0,1-6.181,1.478q-4.972,0-6.987-3.091a12.51,12.51,0,0,1-2.016-6.988q0-5.509,3.494-12.161a58.915,58.915,0,0,1,8.869-12.5,55.41,55.41,0,0,1,11.691-9.742q6.316-3.9,11.959-3.9a13.641,13.641,0,0,1,4.7.739,9.6,9.6,0,0,1,3.359,2.016,9.317,9.317,0,0,1,2.083,2.889,17.465,17.465,0,0,1,1.142,3.359h.269Zm-43.941,37.625a7.751,7.751,0,0,0,1.277,4.77,4.218,4.218,0,0,0,3.561,1.68,11.662,11.662,0,0,0,5.375-1.68,39.495,39.495,0,0,0,6.45-4.5,64.646,64.646,0,0,0,6.652-6.517,55.019,55.019,0,0,0,5.845-7.861,49.377,49.377,0,0,0,4.166-8.466,23.345,23.345,0,0,0,1.612-8.2,5.787,5.787,0,0,0-6.047-6.316q-4.031,0-9,3.494a47.371,47.371,0,0,0-9.406,8.936,55.818,55.818,0,0,0-7.458,12.027A30.246,30.246,0,0,0,857.924,105.116ZM971.2,67.49q-8.063,10.884-15.252,22.172T941.1,112.1a54.3,54.3,0,0,0,13.236-4.838,70.888,70.888,0,0,0,12.3-8.063,86.333,86.333,0,0,0,10.683-10.347,74.783,74.783,0,0,0,8.264-11.422l.537.806a76.348,76.348,0,0,1-12.967,16.8,82.819,82.819,0,0,1-13.639,10.75,62.24,62.24,0,0,1-11.825,5.845,41.7,41.7,0,0,1-7.525,2.083,15.133,15.133,0,0,0-2.687,3.494q-2.016,3.091-5.375,7.525a121.754,121.754,0,0,1-8,9.406,72.048,72.048,0,0,1-10.481,9.2,59.131,59.131,0,0,1-12.967,7.055,41.207,41.207,0,0,1-15.319,2.822,35.947,35.947,0,0,1-9-1.075,23.4,23.4,0,0,1-7.189-3.091,15.1,15.1,0,0,1-4.7-4.838,12.111,12.111,0,0,1-1.68-6.316,12.5,12.5,0,0,1,4.166-9.608A15.468,15.468,0,0,1,881.44,125v1.075h-1.075q-5.241,0-7.794,3.292t-2.553,8.8a13.7,13.7,0,0,0,1.277,6.181,11.317,11.317,0,0,0,3.494,4.166,14.794,14.794,0,0,0,5.174,2.352,26.753,26.753,0,0,0,18.073-2.016,50.481,50.481,0,0,0,10.952-7.256A89.463,89.463,0,0,0,919,131.453q4.77-5.644,9-11.355t7.727-11.019q3.494-5.308,6.181-9.07l-.269-.269q-2.15,2.553-4.77,5.173a52.019,52.019,0,0,1-5.577,4.838,31,31,0,0,1-6.181,3.628,16.59,16.59,0,0,1-6.719,1.411,9.8,9.8,0,0,1-4.435-.941,8.926,8.926,0,0,1-3.091-2.486,9.94,9.94,0,0,1-1.747-3.427,13.19,13.19,0,0,1-.538-3.628,22.648,22.648,0,0,1,1.814-8.6,44.7,44.7,0,0,1,4.77-8.667,51.775,51.775,0,0,1,6.853-7.928,60.988,60.988,0,0,1,8.13-6.517,44.782,44.782,0,0,1,8.533-4.5,21.94,21.94,0,0,1,7.928-1.68q5.241,0,7.592,2.62a8.867,8.867,0,0,1,2.352,6.114h.4l4.972-7.659Zm-24.859.538q-4.434,0-9.608,3.7a50.352,50.352,0,0,0-9.675,9.2A55.132,55.132,0,0,0,919.6,92.887a29.15,29.15,0,0,0-2.956,12.094,7.1,7.1,0,0,0,1.545,4.77,4.972,4.972,0,0,0,3.964,1.814,11.575,11.575,0,0,0,4.9-1.545,34.393,34.393,0,0,0,6.316-4.3,68.275,68.275,0,0,0,6.651-6.45,55.981,55.981,0,0,0,5.98-7.861,47.31,47.31,0,0,0,4.3-8.667,25.426,25.426,0,0,0,1.68-8.936,6.653,6.653,0,0,0-1.277-4.031Q949.435,68.028,946.344,68.028Zm83.851-47.3L982.626,91.409l.269.269q2.688-3.359,6.316-7.727a85.424,85.424,0,0,1,7.861-8.264,49.328,49.328,0,0,1,8.936-6.584,18.814,18.814,0,0,1,9.406-2.688q8.2,0,8.2,8.2a11.437,11.437,0,0,1-1.545,5.106,53.494,53.494,0,0,1-3.9,6.248q-2.351,3.292-5.039,6.652t-5.039,6.517a55.433,55.433,0,0,0-3.9,5.913,10.007,10.007,0,0,0-1.545,4.636,3.662,3.662,0,0,0,.873,2.486,2.954,2.954,0,0,0,2.352,1.008,14.734,14.734,0,0,0,6.786-1.948,49.419,49.419,0,0,0,7.659-5.106,93.8,93.8,0,0,0,7.861-7.055q3.9-3.9,7.189-7.727t5.912-7.256a51.037,51.037,0,0,0,3.83-5.577l.806.269a68.373,68.373,0,0,1-4.166,6.181q-2.688,3.628-6.114,7.659t-7.391,8a94.7,94.7,0,0,1-7.928,7.122,45,45,0,0,1-7.861,5.106,16.344,16.344,0,0,1-7.256,1.948,7.513,7.513,0,0,1-7.928-8.063,13.833,13.833,0,0,1,1.545-5.913,43.88,43.88,0,0,1,3.9-6.517q2.351-3.292,5.039-6.584t5.039-6.248a58.516,58.516,0,0,0,3.9-5.442,8.473,8.473,0,0,0,1.545-4.233,3.3,3.3,0,0,0-1.209-2.956,5.21,5.21,0,0,0-2.956-.806,14.683,14.683,0,0,0-7.458,2.486,53.787,53.787,0,0,0-8.466,6.517,105.668,105.668,0,0,0-8.667,9.07q-4.3,5.039-8.13,10.145t-6.719,9.675q-2.889,4.569-4.5,7.794h-8.734q7.391-11.556,15.185-23.516T992.1,66.415q7.727-11.825,15.117-23.314t13.975-21.971Zm38.969,51.063a3.679,3.679,0,0,0-1.008-2.822,3.506,3.506,0,0,0-2.486-.941,11.143,11.143,0,0,0-6.114,2.217,42.171,42.171,0,0,0-6.517,5.509,54.892,54.892,0,0,0-5.845,7.055,43.871,43.871,0,0,0-3.964,6.719,51.249,51.249,0,0,0,7.391-2.083,53.981,53.981,0,0,0,8.533-3.83,30.652,30.652,0,0,0,7.055-5.308A9.207,9.207,0,0,0,1069.164,71.79Zm21.769,7.122a87.8,87.8,0,0,1-5.039,7.391,84.6,84.6,0,0,1-6.853,8,111.751,111.751,0,0,1-8.2,7.659,74.011,74.011,0,0,1-9.07,6.584,49.568,49.568,0,0,1-9.473,4.569,28.018,28.018,0,0,1-9.339,1.68q-5.644,0-8.734-2.889t-3.091-8.264a25.983,25.983,0,0,1,3.561-12.43,52.722,52.722,0,0,1,9.07-12.027,53.717,53.717,0,0,1,12.094-9.138,26.2,26.2,0,0,1,12.631-3.628,8.574,8.574,0,0,1,5.241,1.411,4.808,4.808,0,0,1,1.881,4.1q0,3.225-3.494,6.248a40.059,40.059,0,0,1-8.533,5.509,87.942,87.942,0,0,1-10.817,4.434,92.824,92.824,0,0,1-10.213,2.889,28.4,28.4,0,0,0-2.419,6.047,24.819,24.819,0,0,0-.941,6.719,14.82,14.82,0,0,0,.336,3.158,9.71,9.71,0,0,0,1.075,2.822,5.978,5.978,0,0,0,2.016,2.083,5.8,5.8,0,0,0,3.158.806q4.434,0,10.414-2.889a67.627,67.627,0,0,0,12.161-7.727,96.939,96.939,0,0,0,11.825-11.019,84.074,84.074,0,0,0,9.675-12.766Zm22.441-27.01L1102.758,67.49H1120.5l-.806,1.613h-18.006q-5.375,8.734-9.608,15.117t-7.122,11.019a77.632,77.632,0,0,0-4.367,7.794,13.467,13.467,0,0,0-1.478,5.577,3.761,3.761,0,0,0,1.747,3.561,7.921,7.921,0,0,0,4.031,1.008q4.837,0,10.683-3.7a79.671,79.671,0,0,0,11.624-9.07,147.7,147.7,0,0,0,11.019-11.422q5.241-6.047,8.869-10.884l.806.538q-4.569,5.778-10.011,12.161a133.145,133.145,0,0,1-11.22,11.691,71.588,71.588,0,0,1-11.624,8.8,21.735,21.735,0,0,1-11.086,3.494,10.784,10.784,0,0,1-7.189-2.553,8.814,8.814,0,0,1-3.023-7.122,16.92,16.92,0,0,1,1.747-6.92,68.631,68.631,0,0,1,4.569-8.264q2.822-4.434,6.383-9.675t7.323-11.153H1086.5l.806-1.613h7.525L1105.311,51.9Zm37.357,0L1140.115,67.49h17.738l-.806,1.613h-18.006q-5.375,8.734-9.608,15.117t-7.122,11.019a77.632,77.632,0,0,0-4.367,7.794,13.467,13.467,0,0,0-1.478,5.577,3.761,3.761,0,0,0,1.747,3.561,7.921,7.921,0,0,0,4.031,1.008q4.837,0,10.683-3.7a79.677,79.677,0,0,0,11.624-9.07,147.7,147.7,0,0,0,11.019-11.422q5.241-6.047,8.869-10.884l.806.538q-4.569,5.778-10.011,12.161a133.145,133.145,0,0,1-11.22,11.691,71.583,71.583,0,0,1-11.624,8.8,21.735,21.735,0,0,1-11.086,3.494,10.784,10.784,0,0,1-7.189-2.553,8.814,8.814,0,0,1-3.023-7.122,16.92,16.92,0,0,1,1.747-6.92,68.614,68.614,0,0,1,4.569-8.264q2.822-4.434,6.383-9.675t7.323-11.153h-7.256l.806-1.613h7.525L1142.668,51.9Zm28.756,15.588q-7.391,10.616-12.5,17.872t-8.264,12.094a83.243,83.243,0,0,0-4.569,7.659,10.971,10.971,0,0,0-1.411,4.569q0,3.494,2.822,3.494a13.435,13.435,0,0,0,6.248-1.948,53.373,53.373,0,0,0,7.458-5.039,91.271,91.271,0,0,0,7.794-6.988q3.9-3.9,7.323-7.727t6.047-7.391a50.008,50.008,0,0,0,3.83-5.845l1.075.672q-1.613,2.688-4.367,6.45t-6.249,7.727q-3.494,3.964-7.391,7.861a80.561,80.561,0,0,1-7.928,6.988,47.338,47.338,0,0,1-7.861,4.972,16.163,16.163,0,0,1-7.055,1.881q-3.628,0-5.375-2.016a6.623,6.623,0,0,1-1.747-4.434,15.977,15.977,0,0,1,1.276-5.98,53.74,53.74,0,0,1,4.1-7.727q2.822-4.569,7.323-11.086t10.817-16.058Zm7.794-24.994a4.07,4.07,0,0,1,3.091,1.277,4.727,4.727,0,0,1,0,6.316,4.38,4.38,0,0,1-6.181,0,4.728,4.728,0,0,1,0-6.316A4.071,4.071,0,0,1,1187.281,42.5Zm12.363,52q6.316-10.213,12.43-20.425a138.536,138.536,0,0,0,10.414-21.366q2.285-5.913,4.031-8.063a5.471,5.471,0,0,1,4.434-2.15,4.181,4.181,0,0,1,3.158,1.344,4.517,4.517,0,0,1,1.277,3.225,7.761,7.761,0,0,1-1.948,5.039q-1.948,2.352-3.7,4.233-8.063,9.138-15.386,18.745t-13.908,19.955Zm-7.122,9.272a5.049,5.049,0,1,1-3.494,1.478A4.777,4.777,0,0,1,1192.521,103.772Z" transform="translate(507.19 774.553)" fill="#707070"/><path d="M37.454,60.024c0,.336.2.47.538.47h4.636c.336,0,.47-.134.47-.537V21.189H57.342c.336,0,.47-.2.4-.47V16.284c-.067-.336-.2-.47-.537-.47H24.084a.469.469,0,0,0-.538.4l-.739,4.5c-.067.336.067.47.336.47H37.454ZM66.479,35.836a11.194,11.194,0,0,1,8.331-3.7c4.7,0,6.988,3.427,6.988,8.6V59.956c0,.4.134.537.47.537H86.9c.336,0,.47-.134.47-.47V40.136c0-10.616-6.181-12.967-10.884-12.967a14.293,14.293,0,0,0-10.011,3.9V12.656c0-.269-.067-.336-.4-.336h-4.77c-.4,0-.4.134-.4.4v47.3c0,.336.067.47.4.47h4.77c.336,0,.4-.067.4-.4Zm48.308,9a55.226,55.226,0,0,0,6.92-.269.449.449,0,0,0,.47-.4,17.979,17.979,0,0,0,.269-3.494c0-5.711-3.494-13.5-13.1-13.5-9.339,0-14.849,7.861-14.849,17.267,0,8.2,4.166,16.73,15.789,16.73a20.576,20.576,0,0,0,9.474-1.948.671.671,0,0,0,.336-.672v-3.83c0-.269-.134-.4-.336-.269a18.908,18.908,0,0,1-8.4,1.814c-7.592,0-11.288-5.039-11.22-11.422Zm-14.58-4.166c.6-4.5,3.359-8.869,8.936-8.869,6.316,0,7.928,5.577,7.928,8a2.757,2.757,0,0,1-.067.739,26.832,26.832,0,0,1-4.3.134Z" transform="translate(526.275 685)" fill="#707070"/><path d="M50.1,55.119c0-.336-.134-.336-.4-.269a22.622,22.622,0,0,1-8.4,1.209c-7.055,0-17.6-3.964-17.6-18.006,0-10.75,7.189-17.6,17.738-17.6,3.7,0,6.719.538,8.6,1.545.2.067.47.067.47-.336v-4.5a.532.532,0,0,0-.336-.538c-1.478-.739-4.1-1.209-8.6-1.209-14.311,0-23.583,9.339-23.583,22.777,0,16.461,11.489,22.978,22.71,22.978,3.763,0,6.853-.336,9.07-1.277.269-.067.336-.336.336-.672Zm6.517-1.411c0,6.316,3.158,7.458,6.45,7.458a8.218,8.218,0,0,0,3.091-.47c.269-.134.336-.2.336-.538V56.664c0-.269-.067-.4-.269-.4a5.431,5.431,0,0,1-1.344.2c-1.613,0-2.688-.6-2.688-3.225V12.723c0-.269-.067-.4-.4-.4h-4.7c-.336,0-.47.067-.47.4ZM98.27,28.244c0-.269,0-.4-.4-.4h-4.7c-.336,0-.47.134-.47.4V52.767A10.07,10.07,0,0,1,84.9,56.194c-4.7,0-7.122-3.158-7.122-8.331V28.244c0-.269-.067-.4-.336-.4h-4.77c-.336,0-.47.067-.47.4V48.534c0,9.742,5.375,12.631,11.086,12.631a13.254,13.254,0,0,0,9.742-3.9,17.615,17.615,0,0,0,.4,2.889c.134.269.2.336.537.336h4.3c.336,0,.4-.134.4-.4a43.94,43.94,0,0,1-.4-6.719Zm9.944-15.924c-.336,0-.47.067-.47.4V59.217a.588.588,0,0,0,.4.6,29.049,29.049,0,0,0,9.2,1.344c9.474,0,18.611-6.181,18.611-18.275,0-9.07-6.047-15.722-15.319-15.722a19.128,19.128,0,0,0-7.256,1.344V12.723c0-.4-.134-.4-.47-.4Zm22.038,31.041c0,8.667-5.98,12.967-12.43,12.967a14.3,14.3,0,0,1-4.434-.537V33.215a15.951,15.951,0,0,1,6.383-1.142C126.22,32.073,130.251,36.508,130.251,43.361Z" transform="translate(1579.538 940.315)" fill="#707070"/><path d="M76.594,178.921a1.016,1.016,0,0,0,1.149-1.149V126.835h21.83c1.915,0,2.872.766,4.4,3.064,9.575,14.745,25.469,39.256,31.4,48.256a2.386,2.386,0,0,0,2.106.766h16.085c.957,0,.957-.766.575-1.532-4.979-8.234-30.639-45.958-37.15-54.959,14.171-4.787,26.426-15.894,26.426-33.894,0-24.511-18.766-36.575-46.916-36.575-12.83,0-22.6.191-33.32.574-.957,0-1.149.574-1.149,1.532v123.7c0,.957.383,1.149,1.149,1.149Zm1.149-66.065V66.514c3.83-.191,10.915-.383,18.192-.383,20.49,0,31.6,8.617,31.6,23.171,0,14.171-11.107,23.554-29.3,23.554ZM218.3,134.3c8.426,0,16.851-.191,19.724-.766a1.281,1.281,0,0,0,1.34-1.149,51.246,51.246,0,0,0,.766-9.958c0-16.277-9.958-38.49-37.341-38.49-26.618,0-42.32,22.4-42.32,49.214,0,23.362,11.873,47.682,45,47.682,12.064,0,20.49-2.3,27-5.553a1.911,1.911,0,0,0,.957-1.915V162.452c0-.766-.383-1.149-.957-.766a53.889,53.889,0,0,1-23.937,5.17c-21.639,0-32.171-14.362-31.979-32.554ZM176.745,122.43c1.723-12.83,9.575-25.277,25.469-25.277,18,0,22.6,15.894,22.6,22.788a7.855,7.855,0,0,1-.191,2.106c-.574.191-2.872.383-12.256.383Zm146.684,42.129c0-.574-.191-.957-1.149-.766-4.787,1.915-10.724,2.681-17.809,2.681-17.809,0-33.7-11.3-33.7-34.277,0-20.873,13.979-34.086,33.7-34.086,7.851,0,12.83.957,17.617,2.872.766.191,1.34.191,1.34-.766V88.153c0-.957,0-1.34-.766-1.723-3.064-1.34-8.426-2.489-18.192-2.489-30.064,0-49.98,20.873-49.98,48.831,0,25.852,16.085,48.065,47.3,48.065,7.085,0,14.553-.574,20.873-3.064.766-.191.766-.574.766-1.34Zm19.532,12.83c0,1.149.574,1.532,1.532,1.532h13.213c1.149,0,1.34-.383,1.34-1.34V87c0-.957-.383-1.149-1.149-1.149H344.3c-.957,0-1.34.383-1.34,1.34ZM351,67.472c5.936,0,9.766-4.021,9.766-9.766,0-5.553-3.447-9.766-9.575-9.766a9.35,9.35,0,0,0-9.766,9.766C341.429,63.45,345.067,67.472,351,67.472ZM421.665,83.94c-16.277,0-28.915,5.17-35.618,7.66a.765.765,0,0,0-.383.766c.192,2.489.383,6.7.383,8.426v119.3c0,.957.191,1.149.957,1.149.766-.191,9.575-1.149,13.979-1.532.957-.192.957-.575.957-1.34v-38.3a60.99,60.99,0,0,0,9.766.766c27.192,0,54.767-16.851,54.767-51.7C466.474,103.472,450.006,83.94,421.665,83.94ZM419.75,97.919c19.341,0,30.447,12.639,30.447,32.171,0,25.469-18.766,36.958-37.341,36.958a40.636,40.636,0,0,1-10.915-1.149V100.983A51.787,51.787,0,0,1,419.75,97.919ZM539.242,134.3c8.426,0,16.851-.191,19.724-.766a1.281,1.281,0,0,0,1.34-1.149,51.245,51.245,0,0,0,.766-9.958c0-16.277-9.958-38.49-37.341-38.49-26.618,0-42.32,22.4-42.32,49.214,0,23.362,11.873,47.682,45,47.682,12.064,0,20.49-2.3,27-5.553a1.911,1.911,0,0,0,.957-1.915V162.452c0-.766-.383-1.149-.957-.766a53.889,53.889,0,0,1-23.937,5.17c-21.639,0-32.171-14.362-31.979-32.554ZM497.688,122.43c1.723-12.83,9.575-25.277,25.469-25.277,18,0,22.6,15.894,22.6,22.788a7.856,7.856,0,0,1-.191,2.106c-.574.191-2.872.383-12.256.383Zm128.875,55.15c0,.766.191,1.149,1.149,1.34,7.277.191,19.149.383,32.171.383,28.916,0,50.937-12.639,50.937-37.916,0-18.192-12.256-26.809-20.107-30.256,5.362-3.638,13.6-11.873,13.6-26.426,0-11.49-5.362-32.745-43.661-32.745-11.107,0-26.043.383-33.128.574-.957.192-.957.574-.957,1.532Zm15.7-58.406H661.8c5.553,0,10.915.192,15.128,1.34,11.681,3.064,17.426,10.915,17.426,21.256,0,16.468-14.553,24.128-35.809,23.745-5.936,0-12.064-.191-16.277-.383Zm0-53.044c3.638-.191,11.107-.383,17.426-.383,18.383,0,28.916,6.7,28.916,21.064a22.114,22.114,0,0,1-10.532,19.532,123,123,0,0,0-18-1.149H642.265ZM769.8,83.94c-26.809,0-44.043,21.447-44.043,48.448,0,23.554,13.213,48.448,44.043,48.448,25.66,0,43.661-19.532,43.661-48.639C813.46,104.621,796.8,83.94,769.8,83.94Zm-.766,13.788c19.915,0,28.15,17.043,28.15,34.852,0,23.745-13.4,34.469-27,34.469-18.192,0-28.341-15.511-28.341-35.043C741.842,111.515,752.948,97.728,769.034,97.728ZM872.249,83.94c-26.809,0-44.043,21.447-44.043,48.448,0,23.554,13.213,48.448,44.043,48.448,25.66,0,43.661-19.532,43.661-48.639C915.909,104.621,899.25,83.94,872.249,83.94Zm-.766,13.788c19.915,0,28.15,17.043,28.15,34.852,0,23.745-13.4,34.469-27,34.469-18.192,0-28.341-15.511-28.341-35.043C844.291,111.515,855.4,97.728,871.483,97.728ZM994.039,85.855a2.33,2.33,0,0,0-1.915.957c-4.979,5.362-31.4,32.745-40.405,41.746V42.769a1.016,1.016,0,0,0-1.149-1.149h-13.4c-1.149,0-1.341.383-1.341,1.149V177.58c0,.957.192,1.34,1.341,1.34h13.4c.957,0,1.149-.383,1.149-1.34v-45c9.192,9.958,33.32,35.235,43.278,45.384a2.357,2.357,0,0,0,1.915.957H1015.1c.957,0,1.34-.766.766-1.34-13.979-13.979-34.852-35.618-47.3-48.639,0-.191-.192-.574,0-.766,7.085-6.894,36-34.852,41.363-40.788.766-.766.383-1.532-.574-1.532Z" transform="translate(699.362 1010.689)" fill="#707070"/></g></svg>