<svg xmlns="http://www.w3.org/2000/svg" width="629.708" height="707.563" viewBox="0 0 629.708 707.563"><g transform="translate(-75.033 -636.596)"><path d="M77.615,7.977C57.775,21.454,55.594,50.971,55.594,50.971c-1.818,54.786,8.088,11.576-35.636,132.54S18.6,350.328,14.467,272.057,70.032,127.63,66.455,69.968s33.559-36.544,35.377-53.907S97.456-5.5,77.615,7.977Z" transform="translate(372.739 1182.726) rotate(172)" fill="#ebd782"/><path d="M30.167,7.172A51.664,51.664,0,0,0,.189,45.829c-2.475,49.26,19.88,77.821,36.686,99.554s36.191,61.347,26.258,106.511S.411,371.038.411,371.038s-3.232,24.687,23.609-14.4,61.064-61.662,58.589-134.818S19.843,114.756,14.974,62.91s45.684-32.858,48.159-48.47S57.176-4.945,30.167,7.172Z" transform="matrix(0.993, 0.122, -0.122, 0.993, 232.462, 899.947)" fill="#fffa84"/><path d="M75.095,0c41.474,0,75.095,10.311,75.095,23.031S116.569,46.062,75.095,46.062,0,35.751,0,23.031,33.621,0,75.095,0Z" transform="translate(285.27 978.821) rotate(-45)" fill="#cbcbcb"/><path d="M37.212,0s11.6,466.287-17.464,466.287S2.285,0,2.285,0Z" transform="translate(347.098 964.847) rotate(-45)" fill="#cbcbcb"/><path d="M100.814,0c10.159,0,17.643,12.577,27.094,15.48,8.363,2.568,18.773-4.735,26.257,0,9.442,5.973,14.71,23.006,21.782,31.945,6.291,7.952,14.738,7.754,18.417,17.645,3.991,10.728,0,22.443,0,34.672,0,11.2,4.344,21.974.863,32.213-4.162,12.241-10.776,16-19.28,25.78-6.634,7.628-31.46,19.076-40.367,24.493-14.94,9.086-15.817,17.256-34.767,17.256A101.284,101.284,0,0,1,89,198.79c-11.182-1.3-22.454,5.649-32.552.694-4.083-2-7.764-14.6-11.678-17.256-6.4-4.339-11.3-18.6-16.674-24.493-10.124-11.113-22.731-10.661-27.028-25.78-2.413-8.489,0-22.738,0-32.213,0-8.65-2.139-26.435,0-34.672,2.461-9.475,9.65-9.233,14.823-17.645,5.422-8.817,20.842-12.45,28.879-19.3C54.6,19.746,57.655,8.8,70.507,4.682A99.558,99.558,0,0,1,100.814,0Z" transform="translate(75.033 794.813) rotate(-45)" fill="#a86d0e"/><path d="M56.119.753c15.436-2.72,5.139,2.477-10.054,6.8-8.124,4.8-17.4,8.983-21.152,11.117C10.58,21.4,18.5,20.5,4.6,61.108,7.928,84.666-3.321,47.046,1,41.386c.649-4.97,1.111-11.3,7.812-20.979C11.876,16.259,22.3,10.162,39.894,7.983A155.273,155.273,0,0,1,56.119.753Z" transform="matrix(-0.469, -0.883, 0.883, -0.469, 161.798, 907.371)" fill="#89590b"/><path d="M22.786,6.876,29.6,80.269l.669,94.039H0L6.338,2.509S9.645-.875,13.757.217,22.786,6.876,22.786,6.876Z" transform="translate(178.121 871.673) rotate(-45)" fill="#cbcbcb"/><path d="M24.482,7.913C33.079,58.7,31.023,178.1,31.023,178.1H.752S-2.237,75.947,3.7,19.893C5.891-.769,22.073-6.322,24.482,7.913Z" transform="translate(259.707 784.731) rotate(-45)" fill="#cbcbcb"/><path d="M27.718,14.639c3.865,56.424,2.553,132.645,2.553,132.645H0L.864,16.3S25.4-19.239,27.718,14.639Z" transform="translate(240.04 847.972) rotate(-45)" fill="#cbcbcb"/><path d="M60.907,1.143c11.488,0,19.5-2.435,30.188-.2,9.458,1.98,28.173,7.336,36.636,10.987,10.677,4.606,16.284,12.3,24.282,19.193,7.114,6.132,17.026,3.96,21.187,11.587,4.513,8.272,20.351,16.433,20.351,25.863,0,8.639,16.073,34.531,12.136,42.426-4.707,9.439-30.035,32.621-39.652,40.161-7.5,5.882-32.642-32.284-42.715-28.107-16.9,7.006-11.723-5.036-33.153-5.036-4.429,0-8.8-.174-13.356-.535-12.646-1-25.394,4.356-36.813.535-4.617-1.545-8.78-11.259-13.206-13.306-7.235-3.346-12.781-14.34-18.857-18.887C-3.515,77.256-1.6,23.025,7.49,17.741,18.6,11.281,27.779,8.778,42.313,5.606,52.97,3.279,48.878,1.143,60.907,1.143Z" transform="matrix(0.326, -0.946, 0.946, 0.326, 75.651, 831.664)" fill="#a00000"/><path d="M11.432.214C17.129,1,25.4,7.5,21.977,13.793,19.626,8.533,18.547,3.4,10.866,3.4-2.875,3.4,9.687,29.028,3.6,18.5S-1.486-1.56,11.432.214Z" transform="matrix(0.839, -0.545, 0.545, 0.839, 179.001, 865.76)" fill="#89590b"/><path d="M18.058.127c7.052.7,9.633,8.2,8.923,15.3C19.345,3.754,20.52,3.666,17.356,2.962.347,2.962,3.622,36.423.82,24.219S2.067-1.452,18.058.127Z" transform="matrix(0.899, -0.438, 0.438, 0.899, 241.029, 838.088)" fill="#89590b"/><path d="M14.494.171c7.052.7,10.224,8.86,8.312,15.185C19.873,9.908,16.956,3.71,13.793,3.007c-17.009,0-6.817,42.166-11.349,23.575S-1.5-1.408,14.494.171Z" transform="matrix(0.899, -0.438, 0.438, 0.899, 263.821, 775.551)" fill="#89590b"/><path d="M35.751.179c13.584,4.185,24.466,10.775,22.772,17.1C40.3,6.887,41.627,3.33,34.078,2.7-6.515,2.7,8.2,38.94,1.517,28.076S10.976-2.057,35.751.179Z" transform="matrix(0.848, 0.53, -0.53, 0.848, 262.352, 728.955)" fill="#89590b"/><path d="M40.787.324c10.745,2.136,5.79,3.562-1.649,2.854C-.866,3.178-.707,41.332.246,24.57S19.5-1.938,40.787.324Z" transform="translate(142.588 709.321) rotate(-4)" fill="#710101"/><path d="M17.838.364c4.7,2.4,2.532,4.005-.721,3.209-17.5,0-17.426,42.9-17.009,24.054S8.53-2.179,17.838.364Z" transform="translate(122.48 803.207) rotate(-103)" fill="#710101"/><path d="M40.448,0C51.1,3.651,46.191,6.089,38.813,4.879-.859,4.879-.7,70.1.244,41.448S18.818,5.209,40.448,0Z" transform="translate(162.094 851.123) rotate(-148)" fill="#710101"/><path d="M57.319,1.252c25.222-4.444-16.59,2.962-31.356,21.99C12.955,40.005,19.7,21,5.8,61.606,9.128,85.164-1.223,70.14.121,56.294c.224-2.331-.26-1.357,2.748-6.773S10.1,36.532,12.156,34.63C15.473,29.8,25.109,15.8,26,14.872a16.411,16.411,0,0,1,3.06-2.626C38.553,4.695,46.554,5.292,57.319,1.252Z" transform="translate(170.885 879.713) rotate(-148)" fill="#710101"/><path d="M15.725.071c6.141.388,8.388,4.568,7.77,8.527-6.649-6.506-5.626-6.555-8.381-6.947C.3,1.651,3.154,20.3.714,13.5S1.8-.809,15.725.071Z" transform="translate(228.735 816.253) rotate(-105)" fill="#89590b"/><path d="M15.93.04c6.221.221,8.5,2.6,7.872,4.857C17.066,1.191,18.1,1.164,15.312.94.306.94,3.2,11.561.724,7.687S1.823-.461,15.93.04Z" transform="translate(244.444 882.242) rotate(-145)" fill="#89590b"/><path d="M2.054,0S7.047,117.243,7.047,223.294c0,124.181,14.387,228.184,15.865,228.049-6.324.218-20.287-103.089-20.287-227.27,0-97.979-4.627-145.963-1.6-212.43C1.108,9.608.969,1.088,1.082.787,1.986.07,2.054,0,2.054,0Z" transform="matrix(0.719, -0.695, 0.695, 0.719, 355.312, 971.701)" fill="#9b9898"/><path d="M3.359.949c.971-8.582,2.283,42.5,2.283,93.684s-.833,71.216-4.161,71.216,0-20.487,0-71.67S2.388,9.532,3.359.949Z" transform="matrix(0.719, -0.695, 0.695, 0.719, 188.236, 878.205)" fill="#9b9898"/><path d="M2.62.79c.971-7,3.015,33.7,3.015,75.45,0,36.785-3.148,57.265-3.148,57.265L0,133.024s1.2-21.071,1.2-57.481C1.2,33.789,1.649,7.792,2.62.79Z" transform="matrix(0.719, -0.695, 0.695, 0.719, 278.431, 803.174)" fill="#9b9898"/><path d="M.979,1.166,1.874,0S4.121,36.4,4.121,59.224c0,34.07-.9,47.254-1.922,47.329a4.7,4.7,0,0,1-1.761.072c-.622-5.861-.4-23.935-.4-47.1C.039,25.453.979,1.166.979,1.166Z" transform="matrix(0.719, -0.695, 0.695, 0.719, 252.895, 861.344)" fill="#9b9898"/><path d="M37.958.333A65.007,65.007,0,0,0,.238,48.974C-2.877,110.956,25.253,146.893,46.4,174.239s45.538,77.192,33.04,134.02S.517,458.175.517,458.175-3.55,489.238,30.223,440.06s76.835-77.588,73.721-169.638S24.968,135.7,18.842,70.466,62.595,16.395,63.481,7.423C60.706,3.37,59.13-1.3,37.958.333Z" transform="matrix(0.993, 0.122, -0.122, 0.993, 265.339, 867.106)" fill="#fff258"/><path d="M83.942,312.93C64.1,299.454,61.921,269.937,61.921,269.937,60.1,215.151,70.009,258.361,26.285,137.4S6.615,19.41,6.488,15.407,22.613-32.512,20.794,48.851,76.359,193.278,72.782,250.94s33.559,36.544,35.377,53.907S103.783,326.407,83.942,312.93Z" transform="translate(271.536 1254.797) rotate(-158)" fill="#fffa84"/><path d="M3.844,0S14.482,21.512,19.4,35.134c5.424,14.342,8.436,32,5.156,54.993S7.071,137.456,3.842,150.789A44.725,44.725,0,0,1,0,159.547s6.639-4.865,11.638-16.089c8.864-19.9,15.593-29.466,19.348-68.641C30.169,37.571,3.844,0,3.844,0Z" transform="matrix(0.993, 0.122, -0.122, 0.993, 251.189, 1055.744)" fill="#e8e481"/><path d="M83.942,7.977C64.1,21.454,61.921,50.971,61.921,50.971c-1.818,54.786,8.088,11.576-35.636,132.54S6.615,301.5,6.488,305.5s16.124,47.919,14.306-33.444S76.359,127.63,72.782,69.968s33.559-36.544,35.377-53.907S103.783-5.5,83.942,7.977Z" transform="translate(193.772 922.952) rotate(-8)" fill="#fff258"/><path d="M0,0S2.907,10.393,4.726,15.817C6.732,21.527,6.949,28.9,5.736,38.06S4.487,55.1,1.728,61.411s-.395,5,2.884-2.919,1.81-12.431,3.2-28.029C7.508,15.633,0,0,0,0Z" transform="translate(291.967 1192.013) rotate(30)" fill="#e8e481"/></g></svg>